<svg xmlns="http://www.w3.org/2000/svg" xmlns:xlink="http://www.w3.org/1999/xlink" xmlns:inkscape="http://www.inkscape.org/namespaces/inkscape" version="1.1" width="195" height="187" viewBox="0 0 195 187">
<defs>
<path id="font_1_96" d="M.37298585 .3798828C.37298585 .41236878 .34298707 .4423828 .2979889 .4423828 .23799134 .4423828 .19599915 .40037538 .17298889 .33787538H.17199707V.4423828L.02999878 .43066407V.3996582C.09799194 .3996582 .10699463 .3927307 .10699463 .34387208V.07698059C.10699463 .0309906 .09599304 .0309906 .02999878 .0309906V0C.08299255 .0019989014 .09599304 .0029907227 .14698792 .0029907227L.27398683 0V.0309906H.2539978C.18099976 .0309906 .17799378 .041992189 .17799378 .07897949V.22891236C.17799378 .26989747 .18899536 .4166565 .30299378 .4166565V.4156494C.30099488 .4146576 .2849884 .40264894 .2849884 .37887574 .2849884 .35186769 .30599977 .33486939 .32899476 .33486939 .34999085 .33486939 .37298585 .34986878 .37298585 .3798828Z"/>
<path id="font_1_50" d="M.4269867 .11936951C.4269867 .12637329 .42199708 .13237 .41299439 .13237 .40299989 .13237 .3999939 .12536621 .39898683 .12136841 .36499024 .019256592 .27598573 .01725769 .26098634 .01725769 .21299744 .01725769 .17199707 .044281007 .14898682 .078323367 .115997318 .12736511 .114990238 .18743897 .114990238 .22949219H.3999939C.42199708 .22949219 .4269867 .22949219 .4269867 .25048829 .4269867 .35333253 .37098695 .4482422 .24299622 .4482422 .12298584 .4482422 .0289917 .3443451 .0289917 .22047425 .0289917 .08932495 .13398743-.0107421879 .2559967-.0107421879 .37799073-.0107421879 .4269867 .096343997 .4269867 .11936951M.35899354 .253479H.115997318C.125 .40725709 .21499634 .42323304 .24299622 .42323304 .2979889 .42323304 .35798646 .38130189 .35899354 .253479Z"/>
<path id="font_1_28" d="M.49699403 .089141849V.14515686H.46899415V.090148929C.46899415 .07914734 .46899415 .029129029 .43299867 .029129029 .39698792 .029129029 .39698792 .07714844 .39698792 .09315491V.26818849C.39698792 .32521058 .39698792 .3592224 .35198976 .40022279 .31498719 .43322755 .2669983 .4482422 .21699524 .4482422 .1329956 .4482422 .06298828 .40623475 .06298828 .34220887 .06298828 .311203 .083999637 .2942047 .10998535 .2942047 .13699341 .2942047 .1559906 .31420899 .1559906 .34020997 .1559906 .3832245 .11099243 .38822938 .11099243 .38822938 .13798523 .41423036 .18598938 .42323304 .21499634 .42323304 .2659912 .42323304 .32299806 .3852234 .32299806 .29719544V.26419068C.2689972 .26219178 .19400025 .2571869 .1269989 .22518921 .054992677 .19017029 .032989503 .13816834 .032989503 .09814453 .032989503 .01625061 .12998963-.0107421879 .19699097-.0107421879 .27999879-.0107421879 .31799317 .04425049 .33198548 .072250369 .33699037 .030136109 .3659973-.005859375 .40899659-.005859375 .43399049-.005859375 .49699403 .009140015 .49699403 .08912659V.089141849M.32299806 .14112854C.32299806 .04425049 .24798584 .014251709 .20399475 .014251709 .15699768 .014251709 .11299133 .04824829 .11299133 .098236087 .11299133 .16423035 .16999817 .23422241 .32299806 .24023438V.14112854Z"/>
<path id="font_1_72" d="M.26098634 0V.0309906C.19499207 .0309906 .18399048 .0309906 .18399048 .07701111V.69433596L.035995485 .6826172V.6516113C.10398865 .6516113 .11299133 .64460757 .11299133 .5956421V.07696533C.11299133 .0309906 .101989749 .0309906 .035995485 .0309906V0C.08299255 .0019989014 .101989749 .0029907227 .147995 .0029907227 .19499207 .0029907227 .21199036 .0019989014 .26098634 0Z"/>
<path id="font_1_66" d="M.25299073 0V.0309906C.18798828 .0309906 .18399048 .035995485 .18399048 .075042728V.4423828L.039993287 .43066407V.3996582C.10398865 .3996582 .11299133 .3936615 .11299133 .3447113V.07695007C.11299133 .0309906 .101989749 .0309906 .035995485 .0309906V0C.08099365 .0019989014 .101989749 .0029907227 .1459961 .0029907227 .1619873 .0029907227 .20399475 .0029907227 .25299073 0M.19699097 .6028137C.19699097 .63282778 .17298889 .6568146 .14299011 .6568146 .11299133 .6568146 .08898926 .63282778 .08898926 .6028137 .08898926 .57281497 .11299133 .5488281 .14299011 .5488281 .17298889 .5488281 .19699097 .57281497 .19699097 .6028137Z"/>
<path id="font_1_75" d="M.83299258 0V.0309906C.7819977 .03125 .7569885 .03125 .7559967 .0622406V.2539215C.7559967 .34077455 .7559967 .36872865 .72299197 .4056549 .70199587 .43037416 .6619873 .4423828 .6159973 .4423828 .5439911 .4423828 .49499513 .40037538 .46699525 .3473816 .45498658 .40637208 .4149933 .4423828 .33099366 .4423828 .25099183 .4423828 .20199585 .39038087 .18099976 .3443756H.17999268V.4423828L.034988405 .43066407V.3996582C.102996829 .3996582 .11199951 .39266969 .11199951 .34370423V.07695007C.11199951 .0309906 .100997928 .0309906 .034988405 .0309906V0C.08198547 .0019989014 .100997928 .0029907227 .14898682 .0029907227 .19699097 .0029907227 .20999146 .0019989014 .2630005 0V.0309906C.19699097 .0309906 .18598938 .0309906 .18598938 .07695007V.25878907C.18598938 .36732484 .2639923 .41737367 .32398988 .41737367 .3789978 .41737367 .39698792 .37834168 .39698792 .30825807V.077041629C.39698792 .0309906 .38598634 .0309906 .31999208 .0309906V0C.36698915 .0019989014 .38598634 .0029907227 .43399049 .0029907227 .48199464 .0029907227 .49499513 .0019989014 .5479889 0V.0309906C.48199464 .0309906 .47099305 .0309906 .47099305 .077041629V.2592163C.47099305 .36732484 .548996 .41737367 .60899356 .41737367 .6639862 .41737367 .6819916 .37834168 .6819916 .30825807V.077041629C.6819916 .0309906 .67099 .0309906 .6049957 .0309906V0C.6519928 .0019989014 .67099 .0029907227 .71899417 .0029907227 .7669983 .0029907227 .7799988 .0019989014 .83299258 0Z"/>
<path id="font_1_59" d="M.49899293 .40338136C.49899293 .42237855 .4850006 .45336915 .44499208 .45336915 .41600038 .45336915 .37098695 .4423828 .33599855 .40637208 .30899049 .42837525 .269989 .4423828 .22799683 .4423828 .1329956 .4423828 .06098938 .3743744 .06098938 .29537965 .06098938 .2443695 .09098816 .20837403 .10699463 .19337464 .10499573 .19137573 .07699585 .15637207 .07699585 .11038208 .07699585 .07637024 .09298706 .040374757 .11999512 .022369385 .068984989 .005874634 .0289917-.03111267 .0289917-.07809448 .0289917-.14907837 .12799073-.20605469 .2559967-.20605469 .3789978-.20605469 .48399354-.15307617 .48399354-.07609558 .48399354-.035110475 .46499635 .008880615 .42799378 .03288269 .37199403 .067871097 .31399537 .067871097 .21899414 .067871097 .19898987 .067871097 .16699219 .067871097 .15899658 .069885257 .12998963 .075927738 .11099243 .1031189 .11099243 .13534546 .11099243 .15142823 .115997318 .16642761 .125 .1794281 .1499939 .16343689 .18099976 .1484375 .22698975 .1484375 .32199098 .1484375 .3939972 .21643067 .3939972 .29542542 .3939972 .34443666 .3659973 .37843324 .35299684 .39242555 .3929901 .42843629 .43998719 .42843629 .45199586 .42843629 .44699098 .4254303 .43899537 .42042542 .43899537 .4024353 .43899537 .39143373 .44599916 .37243653 .46899415 .37243653 .48298646 .37243653 .49899293 .38243104 .49899293 .40342713V.40338136M.31698609 .29542542C.31698609 .27243043 .31698609 .1754303 .22698975 .1754303 .13798523 .17520142 .13798523 .27326966 .13798523 .2952881 .13798523 .3223114 .13999939 .35632325 .15699768 .38034059 .17199707 .4003601 .19898987 .41537477 .22698975 .41537477 .31698609 .41537477 .31698609 .31829835 .31698609 .2952881V.29542542M.42799378-.07698059C.42799378-.1340332 .35099793-.17906189 .25698854-.17906189 .15899658-.17912293 .084991458-.13212586 .084991458-.07711792 .084991458-.06112671 .09498596 .0048828127 .18099976 .0048828127H.272995C.30499269 .0048828127 .42799378 .0038757325 .42799378-.07711792V-.07698059Z"/>
<path id="font_1_77" d="M.5469971 0V.0309906C.49598695 .03125 .47099305 .03125 .46998597 .0622406V.25431825C.46998597 .3373413 .46998597 .36636354 .44198609 .4013672 .4189911 .42938233 .3809967 .4423828 .33099366 .4423828 .23799134 .4423828 .19499207 .37335206 .18099976 .34535218H.17999268V.4423828L.034988405 .43066407V.3996582C.102996829 .3996582 .11199951 .39266969 .11199951 .34370423V.07695007C.11199951 .0309906 .100997928 .0309906 .034988405 .0309906V0C.08198547 .0019989014 .100997928 .0029907227 .14898682 .0029907227 .19699097 .0029907227 .20999146 .0019989014 .2630005 0V.0309906C.19699097 .0309906 .18598938 .0309906 .18598938 .07695007V.25878907C.18598938 .36532594 .26098634 .41737367 .32398988 .41737367 .3829956 .41737367 .3959961 .3683319 .3959961 .30825807V.077041629C.3959961 .0309906 .3849945 .0309906 .31900025 .0309906V0C.3659973 .0019989014 .3849945 .0029907227 .43299867 .0029907227 .48098756 .0029907227 .49398805 .0019989014 .5469971 0Z"/>
<path id="font_1_118" d="M.519989 .3996582V.43066407C.48799134 .42765809 .45700074 .42765809 .44400025 .42765809 .41600038 .42765809 .3849945 .4286499 .35699464 .43066407V.3996582C.40299989 .3976593 .40299989 .36167909 .40299989 .35768128 .40299989 .3466797 .39898683 .33668519 .394989 .32868959L.2939911 .090789798 .18199158 .3526764C.17599488 .3666687 .17599488 .3736725 .17599488 .3736725 .17599488 .3996582 .20999146 .3996582 .23098755 .3996582V.43066407L.11999512 .42765809C.116989139 .42765809 .05999756 .42765809 .020996094 .43066407V.3996582C.06599426 .3996582 .084991458 .3976593 .09700012 .3706665L.25498963-.00016784668 .22999573-.059143068C.20799256-.11212158 .1789856-.18008423 .11399841-.18008423 .08898926-.18008423 .07199097-.167099 .068984989-.16508484 .07699585-.16407776 .10499573-.1560669 .10499573-.12205505 .10499573-.09605408 .085998538-.080062869 .06298828-.080062869 .037994386-.080062869 .019989014-.09605408 .019989014-.123046878 .019989014-.16807556 .06199646-.20507813 .11399841-.20507813 .1789856-.20507813 .22200012-.14706421 .24598694-.092056278L.4269867 .33068849C.43798829 .3566742 .45599366 .3976593 .519989 .3996582Z"/>
<path id="font_2_3" d="M.21299744 .3996582H.30799867C.32598878 .3996582 .33799745 .3996582 .33799745 .41766358 .33799745 .43066407 .32798768 .43066407 .30999757 .43066407H.22099304L.2619934 .59646609C.2619934 .6124573 .24899292 .62545779 .23098755 .62545779 .19898987 .62545779 .19099427 .59646609 .18899536 .5864868L.14898682 .43066407H.054992677C.035995485 .43066407 .023986817 .43066407 .023986817 .4126587 .023986817 .3996582 .034988405 .3996582 .052993776 .3996582H.14199829L.07398987 .12808228C.06599426 .09811401 .06599426 .09613037 .06599426 .08215332 .06599426 .023239136 .11099243-.0107421879 .16299439-.0107421879 .2669983-.0107421879 .32598878 .1330719 .32598878 .14305115 .32598878 .14804077 .32299806 .1550293 .31298829 .1550293 .30299378 .1550293 .3019867 .15203858 .29499818 .1350708 .2639923 .06317139 .21398926 .014251709 .16499329 .014251709 .14498902 .014251709 .1329956 .027236939 .1329956 .060180665 .1329956 .08215332 .13598633 .09413147 .13999939 .10910034L.21299744 .3996582Z"/>
<path id="font_2_1" d="M.13699341 .22949219C.19799805 .22949219 .2630005 .22949219 .31599427 .24247742 .4099884 .2654724 .4269867 .32144166 .4269867 .35542298 .4269867 .41238404 .37399293 .4423828 .31498719 .4423828 .19898987 .4423828 .04699707 .3444214 .04699707 .17242432 .04699707 .077316287 .102996829-.0107421879 .21099854-.0107421879 .36099244-.0107421879 .44499208 .09333801 .44499208 .10635376 .44499208 .112350467 .43798829 .12036133 .43099977 .12036133 .42599488 .12036133 .4249878 .11936951 .41600038 .10835266 .35598756 .03427124 .2649994 .014251709 .21299744 .014251709 .14199829 .014251709 .12298584 .081329349 .12298584 .13137818 .12298584 .13337708 .12298584 .16841126 .13699341 .22949219M.14399719 .25448609C.18798828 .41238404 .29899598 .41737367 .31498719 .41737367 .34899903 .41737367 .3899994 .40138246 .3899994 .35542298 .3899994 .25448609 .23899842 .25448609 .14399719 .25448609Z"/>
<path id="font_3_1" d="M.34799195 .6244507C.34799195 .64852908 .32998658 .66452029 .30699159 .66452029 .27999879 .66452029 .25099183 .638504 .25099183 .60939028 .25099183 .5843353 .2689972 .56933596 .29100038 .56933596 .32299806 .56933596 .34799195 .59936526 .34799195 .6244507M.28799439 .27534486C.2919922 .28533937 .30099488 .3093567 .30499269 .31835938 .30799867 .32736207 .31199647 .33737184 .31199647 .35437013 .31199647 .4104004 .2619934 .44140626 .21199036 .44140626 .10998535 .44140626 .06098938 .3093567 .06098938 .28733827 .06098938 .28234864 .06498718 .27334596 .07899475 .27334596 .09298706 .27334596 .09599304 .27934266 .09899902 .28834535 .1269989 .38539125 .17999268 .4084015 .20799256 .4084015 .22799683 .4084015 .23498535 .395401 .23498535 .37239076 .23498535 .35237123 .22898865 .33737184 .22698975 .33036805L.1749878 .20230103C.16299439 .17329407 .16299439 .17129517 .1499939 .13728333 .13699341 .10726929 .13198853 .09425354 .13198853 .07725525 .13198853 .026229859 .17799378-.009765625 .23298645-.009765625 .33399964-.009765625 .38398744 .12226868 .38398744 .14428711 .38398744 .14628601 .3829956 .15829468 .36499024 .15829468 .35099793 .15829468 .34999085 .1532898 .34399415 .13427735 .32798768 .08325195 .2869873 .023223877 .23599243 .023223877 .21798706 .023223877 .20899964 .035232545 .20899964 .059249879 .20899964 .07925415 .21499634 .09425354 .22799683 .12527466L.28799439 .27534486Z"/>
<path id="font_3_2" d="M.2689972 .39065553H.37799073C.397995 .39065553 .4119873 .39065553 .4119873 .4156494 .4119873 .43066407 .39898683 .43066407 .3809967 .43066407H.2789917L.31399537 .5685272C.31799317 .58351138 .31799317 .5894928 .31799317 .5904999 .31799317 .6144867 .29899598 .6244812 .2829895 .6244812 .2709961 .6244812 .24499512 .6174774 .23599243 .58551028L.19699097 .43066407H.08898926C.067993167 .43066407 .066986087 .42965699 .06298828 .426651 .057998659 .4226532 .053985597 .4096527 .053985597 .4046631 .056991579 .39065553 .06599426 .39065553 .085998538 .39065553H.18699646L.12799073 .15501404C.12199402 .13204956 .11399841 .09811401 .11399841 .086120609 .11399841 .028213501 .1659851-.009765625 .22698975-.009765625 .34199525-.009765625 .4099884 .12705994 .4099884 .14404297 .4099884 .14703369 .4079895 .15802002 .3909912 .15802002 .37799073 .15802002 .37599183 .1530304 .37098695 .14103699 .33699037 .06616211 .27999879 .023223877 .23098755 .023223877 .19400025 .023223877 .19299317 .060165407 .19299317 .073150638 .19299317 .087127689 .19299317 .08912659 .19799805 .10809326L.2689972 .39065553Z"/>
<path id="font_2_2" d="M.2899933 .62428286C.2899933 .646286 .27398683 .6612854 .2519989 .6612854 .22499085 .6612854 .19799805 .6352844 .19799805 .60827639 .19799805 .58828738 .21299744 .57128909 .23599243 .57128909 .2630005 .57128909 .2899933 .59628298 .2899933 .62428286M.3039856 .14329529C.3039856 .14828491 .30099488 .1552887 .29100038 .1552887 .27999879 .1552887 .2789917 .15029907 .2749939 .13728333 .25099183 .055267335 .20999146 .014251709 .17199707 .014251709 .1559906 .014251709 .147995 .022247315 .147995 .04725647 .147995 .0712738 .1559906 .09327698 .1639862 .11227417 .18199158 .16029358 .18199158 .16229248 .19499207 .1933136 .21099854 .23631287 .23298645 .29333497 .24299622 .3213501 .25 .33935548 .25 .34934999 .25 .35835267 .25 .41537477 .20498657 .4423828 .16499329 .4423828 .067993167 .4423828 .0289917 .29934693 .0289917 .28833009 .0289917 .2793274 .035995485 .27633668 .042999269 .27633668 .053985597 .27633668 .054992677 .28233338 .05899048 .29533387 .07998657 .36636354 .117996219 .41737367 .1619873 .41737367 .17199707 .41737367 .18598938 .41537477 .18598938 .38536073 .18598938 .36036683 .17599488 .3343506 .16699219 .31134034L.09599304 .12628174C.08898926 .107284549 .08299255 .091278079 .08299255 .073272708 .08299255 .026260376 .117996219-.0107421879 .16899109-.0107421879 .2659912-.0107421879 .3039856 .13328552 .3039856 .14329529Z"/>
<path id="font_4_1" d="M.3639984 .39356996C.34298707 .3895874 .32299806 .3755951 .32299806 .34658814 .32299806 .32058717 .34298707 .30059815 .36898805 .30059815 .394989 .30059815 .41600038 .31759645 .41600038 .34858705 .41600038 .4103546 .34599305 .4482422 .2579956 .4482422 .12998963 .4482422 .033996583 .3415985 .033996583 .2164917 .033996583 .08734131 .13798523-.0107421879 .2559967-.0107421879 .394989-.0107421879 .4269867 .11036682 .4269867 .11936951 .4269867 .13139344 .41600038 .13139344 .41299439 .13139344 .4019928 .13139344 .4019928 .12937927 .3959961 .11236572 .37298585 .043289186 .31698609 .01725769 .2659912 .01725769 .20199585 .01725769 .11999512 .06932068 .11999512 .21749878 .11999512 .3735962 .19999695 .42022706 .2599945 .42022706 .272995 .42022706 .32699586 .41825868 .3639984 .39356996Z"/>
<path id="font_4_4" d="M.48399354 .21324158C.48399354 .34423829 .37998963 .4482422 .25698854 .4482422 .12998963 .4482422 .0289917 .3412323 .0289917 .21324158 .0289917 .08824158 .1329956-.0107421879 .2559967-.0107421879 .3829956-.0107421879 .48399354 .09024048 .48399354 .21324158M.25698854 .01725769C.20698548 .01725769 .16499329 .042251588 .14199829 .08125305 .115997318 .12324524 .114990238 .17623902 .114990238 .22224427 .114990238 .25924684 .114990238 .3162384 .13999939 .35723878 .16999817 .40823365 .21998596 .42323304 .2559967 .42323304 .31298829 .42323304 .35398866 .39123536 .37399293 .35723878 .39698792 .31523133 .397995 .26423646 .397995 .22224427 .397995 .1852417 .397995 .12724304 .37298585 .08325195 .34498597 .037246705 .29899598 .01725769 .25698854 .01725769Z"/>
<path id="font_4_5" d="M.34399415 .42222596C.34399415 .4392395 .34399415 .4482422 .33198548 .4482422 .32699586 .4482422 .32499696 .4482422 .31199647 .43623353 .30999757 .43423463 .30099488 .42523194 .29499818 .42022706 .2639923 .44223023 .23298645 .4482422 .19898987 .4482422 .066986087 .4482422 .033996583 .37522889 .033996583 .324234 .033996583 .29223634 .04798889 .26623536 .070999149 .24424744 .10499573 .21324158 .14299011 .2062378 .19400025 .1972351 .24499512 .1872406 .2619934 .18424988 .28399659 .16723633 .2939911 .15924073 .31900025 .14024353 .31900025 .102249149 .31900025 .014251709 .21798706 .014251709 .20399475 .014251709 .101989749 .014251709 .07598877 .099243167 .06399536 .15324402 .06098938 .16323853 .05999756 .16925049 .04798889 .16925049 .033996583 .16925049 .033996583 .16123963 .033996583 .14324951V.01524353C.033996583-.0017547608 .033996583-.0107421879 .04598999-.0107421879 .051986696-.0107421879 .052993776-.009750366 .070999149 .009246826 .07499695 .01524353 .085998538 .028244019 .09098816 .0332489 .1329956-.007751465 .1789856-.0107421879 .20399475-.0107421879 .32699586-.0107421879 .36999513 .06124878 .36999513 .12825012 .36999513 .17324829 .34999085 .20024109 .32798768 .22323609 .2939911 .25624085 .2579956 .26324464 .18399048 .27723695 .1579895 .28224183 .084991458 .2952423 .084991458 .3522339 .084991458 .38423158 .10798645 .426239 .19898987 .426239 .30699159 .426239 .31399537 .3432312 .31599427 .3182373 .31698609 .3062439 .31698609 .30023194 .32998658 .30023194 .34399415 .30023194 .34399415 .30723573 .34399415 .3262329V.42222596Z"/>
<path id="font_4_2" d="M.18399048 .4423828 .039993287 .43138124V.40037538C.10398865 .40037538 .11299133 .3943634 .11299133 .34532167V.077041629C.11299133 .0309906 .101989749 .0309906 .035995485 .0309906V0C.08099365 .0019989014 .101989749 .0029907227 .1459961 .0029907227 .1619873 .0029907227 .20399475 .0029907227 .25299073 0V.0309906C.18798828 .0309906 .18399048 .035995485 .18399048 .075042728V.4423828M.18699646 .615921C.18699646 .6459198 .16299439 .6699219 .1329956 .6699219 .101989749 .6699219 .07899475 .6449127 .07899475 .615921 .07899475 .58691409 .101989749 .56192019 .1329956 .56192019 .16299439 .56192019 .18699646 .585907 .18699646 .615921Z"/>
<path id="font_4_3" d="M.18598938 .2592163C.18598938 .36532594 .26098634 .41737367 .32398988 .41737367 .3829956 .41737367 .3959961 .3683319 .3959961 .30825807V.077041629C.3959961 .0309906 .3849945 .0309906 .31900025 .0309906V0C.3659973 .0019989014 .3849945 .0029907227 .43299867 .0029907227 .48098756 .0029907227 .49398805 .0019989014 .5469971 0V.0309906C.49598695 .0309906 .47099305 .0309906 .46998597 .062026979V.25421144C.46998597 .33729554 .46998597 .36631776 .44198609 .40135194 .4189911 .42938233 .3809967 .4423828 .33099366 .4423828 .23799134 .4423828 .19499207 .3733368 .18099976 .3453064H.17999268V.4416504L.034988405 .43066407V.3996582C.102996829 .3996582 .11199951 .39266969 .11199951 .34370423V.07695007C.11199951 .0309906 .100997928 .0309906 .034988405 .0309906V0C.08198547 .0019989014 .100997928 .0029907227 .14898682 .0029907227 .19699097 .0029907227 .20999146 .0019989014 .2630005 0V.0309906C.19699097 .0309906 .18598938 .0309906 .18598938 .07695007V.2592163Z"/>
</defs>
<path transform="matrix(1.00002,0,0,-1.00008,85.15599,101.91083)" stroke-width=".39851" stroke-linecap="butt" stroke-miterlimit="10" stroke-linejoin="miter" fill="none" stroke="#000000" d="M-83.26788 0H89.53123"/>
<path transform="matrix(1.00002,0,0,-1.00008,174.88828,101.91083)" stroke-width=".39851" stroke-linecap="round" stroke-linejoin="round" fill="none" stroke="#000000" d="M-2.07222 2.39102C-1.69363 .95639-.85 .27896 0 0-.85-.27896-1.69363-.95639-2.07222-2.39102"/>
<use data-text="r" xlink:href="#font_1_96" transform="matrix(8.966579,0,0,-8.967117,178.60785,104.97307)"/>
<use data-text="e" xlink:href="#font_1_50" transform="matrix(8.966579,0,0,-8.967117,182.21244,104.97307)"/>
<use data-text="a" xlink:href="#font_1_28" transform="matrix(8.966579,0,0,-8.967117,186.31015,104.97307)"/>
<use data-text="l" xlink:href="#font_1_72" transform="matrix(8.966579,0,0,-8.967117,190.91898,104.97307)"/>
<path transform="matrix(1.00002,0,0,-1.00008,85.15599,101.91083)" stroke-width=".39851" stroke-linecap="butt" stroke-miterlimit="10" stroke-linejoin="miter" fill="none" stroke="#000000" d="M0-83.26788V89.53123"/>
<path transform="matrix(0,-1.00008,-1.00002,-0,85.15599,12.173172)" stroke-width=".39851" stroke-linecap="round" stroke-linejoin="round" fill="none" stroke="#000000" d="M-2.07222 2.39102C-1.69363 .95639-.85 .27896 0 0-.85-.27896-1.69363-.95639-2.07222-2.39102"/>
<use data-text="i" xlink:href="#font_1_66" transform="matrix(8.966579,0,0,-8.967117,65.048587,6.606209)"/>
<use data-text="m" xlink:href="#font_1_75" transform="matrix(8.966579,0,0,-8.967117,67.61304,6.606209)"/>
<use data-text="a" xlink:href="#font_1_28" transform="matrix(8.966579,0,0,-8.967117,75.28842,6.606209)"/>
<use data-text="g" xlink:href="#font_1_59" transform="matrix(8.966579,0,0,-8.967117,79.89725,6.606209)"/>
<use data-text="i" xlink:href="#font_1_66" transform="matrix(8.966579,0,0,-8.967117,84.50607,6.606209)"/>
<use data-text="n" xlink:href="#font_1_77" transform="matrix(8.966579,0,0,-8.967117,87.07051,6.606209)"/>
<use data-text="a" xlink:href="#font_1_28" transform="matrix(8.966579,0,0,-8.967117,92.19043,6.606209)"/>
<use data-text="r" xlink:href="#font_1_96" transform="matrix(8.966579,0,0,-8.967117,96.799259,6.606209)"/>
<use data-text="y" xlink:href="#font_1_118" transform="matrix(8.966579,0,0,-8.967117,100.403827,6.606209)"/>
<path transform="matrix(1.00002,0,0,-1.00008,85.15599,101.91083)" stroke-width=".79703" stroke-linecap="butt" stroke-miterlimit="10" stroke-linejoin="miter" fill="none" stroke="#000000" d="M66.61432 0C66.61432 36.79054 36.79054 66.61432 0 66.61432-36.79054 66.61432-66.61432 36.79054-66.61432 0-66.61432-36.79054-36.79054-66.61432 0-66.61432 36.79054-66.61432 66.61432-36.79054 66.61432 0ZM0 0"/>
<path transform="matrix(1.00002,0,0,-1.00008,85.15599,101.91083)" stroke-width="1.19553" stroke-linecap="butt" stroke-miterlimit="10" stroke-linejoin="miter" fill="none" stroke="#000000" d="M0 0 42.05743 50.1213"/>
<path transform="matrix(.6427929,-.7660813,-.7660353,-.64283147,127.59851,51.3276)" stroke-width="1.19553" stroke-linecap="round" stroke-linejoin="round" fill="none" stroke="#000000" d="M-3.02864 3.83078C-2.47533 1.53229-1.24231 .44693 0 0-1.24231-.44693-2.47533-1.53229-3.02864-3.83078"/>
<path transform="matrix(1.00002,0,0,-1.00008,85.15599,101.91083)" stroke-width="1.19553" stroke-linecap="butt" stroke-miterlimit="10" stroke-linejoin="miter" fill="none" stroke="#000000" d="M42.82588 51.03708 22.30974 68.25171"/>
<path transform="matrix(-.76605537,-.6428114,-.64277288,.7661013,107.00827,33.2694)" stroke-width="1.19553" stroke-linecap="round" stroke-linejoin="round" fill="none" stroke="#000000" d="M-3.02864 3.83078C-2.47533 1.53229-1.24231 .44693 0 0-1.24231-.44693-2.47533-1.53229-3.02864-3.83078"/>
<path transform="matrix(1.00002,0,0,-1.00008,85.15599,101.91083)" stroke-width=".39851" stroke-linecap="butt" stroke-dasharray="2.9888,2.9888" stroke-miterlimit="10" stroke-linejoin="miter" fill="none" stroke="#000000" d="M42.81912 0 42.82588 51.03708"/>
<path transform="matrix(1.00002,0,0,-1.00008,85.15599,101.91083)" stroke-width=".39851" stroke-linecap="butt" stroke-dasharray="2.9888,2.9888" stroke-miterlimit="10" stroke-linejoin="miter" fill="none" stroke="#000000" d="M0 51.02904 42.82588 51.03708"/>
<path transform="matrix(1.00002,0,0,-1.00008,85.15599,101.91083)" stroke-width=".79703" stroke-linecap="butt" stroke-miterlimit="10" stroke-linejoin="miter" fill="none" stroke="#000000" d="M21.31705 0C21.31705 6.30052 18.5288 12.28001 13.70241 16.32964"/>
<use data-text="t" xlink:href="#font_2_3" transform="matrix(8.966579,0,0,-8.967117,112.470539,91.15497)"/>
<use data-text="e" xlink:href="#font_2_1" transform="matrix(8.966579,0,0,-8.967117,131.50292,47.349466)"/>
<use data-text="i" xlink:href="#font_3_1" transform="matrix(5.97772,0,0,-5.9780786,135.787,43.54016)"/>
<use data-text="t" xlink:href="#font_3_2" transform="matrix(5.97772,0,0,-5.9780786,138.4471,43.54016)"/>
<use data-text="i" xlink:href="#font_2_2" transform="matrix(8.966579,0,0,-8.967117,124.833789,29.44703)"/>
<use data-text="e" xlink:href="#font_2_1" transform="matrix(8.966579,0,0,-8.967117,127.981067,29.44703)"/>
<use data-text="i" xlink:href="#font_3_1" transform="matrix(5.97772,0,0,-5.9780786,132.27194,25.637726)"/>
<use data-text="t" xlink:href="#font_3_2" transform="matrix(5.97772,0,0,-5.9780786,134.93204,25.637726)"/>
<use data-text="c" xlink:href="#font_4_1" transform="matrix(8.966579,0,0,-8.967117,119.37468,110.94655)"/>
<use data-text="o" xlink:href="#font_4_4" transform="matrix(8.966579,0,0,-8.967117,123.463459,110.94655)"/>
<use data-text="s" xlink:href="#font_4_5" transform="matrix(8.966579,0,0,-8.967117,128.06331,110.94655)"/>
<use data-text="t" xlink:href="#font_2_3" transform="matrix(8.966579,0,0,-8.967117,133.24897,110.94655)"/>
<use data-text="s" xlink:href="#font_4_5" transform="matrix(8.966579,0,0,-8.967117,65.457599,53.87799)"/>
<use data-text="i" xlink:href="#font_4_2" transform="matrix(8.966579,0,0,-8.967117,69.089069,53.87799)"/>
<use data-text="n" xlink:href="#font_4_3" transform="matrix(8.966579,0,0,-8.967117,71.64455,53.87799)"/>
<use data-text="t" xlink:href="#font_2_3" transform="matrix(8.966579,0,0,-8.967117,78.30786,53.87799)"/>
</svg>
