<svg xmlns="http://www.w3.org/2000/svg" xmlns:xlink="http://www.w3.org/1999/xlink" xmlns:inkscape="http://www.inkscape.org/namespaces/inkscape" version="1.1" width="235" height="173" viewBox="0 0 235 173">
<defs>
<path id="font_1_1" d="M.6749878 .22944641C.69299319 .22944641 .71199038 .22944641 .71199038 .25144959 .71199038 .27246095 .69200137 .27246095 .6749878 .27246095H.12298584C.10598755 .27246095 .085998538 .27246095 .085998538 .25144959 .085998538 .22944641 .10499573 .22944641 .12298584 .22944641H.6749878Z"/>
<path id="font_2_1" d="M.272995 .36865235H.3869934C.37199403 .30575563 .34599305 .20193482 .34599305 .11906433 .34599305 .112075809 .34599305 .075149539 .35499574 .03919983 .36499024 .0012512207 .37399293-.0107421879 .3939972-.0107421879 .4149933-.0107421879 .43699647 .007247925 .43699647 .030212403 .43699647 .037200929 .43598939 .04020691 .42999269 .05317688 .39898683 .123062137 .39898683 .19694519 .39898683 .21990967 .39898683 .24485779 .39898683 .28878785 .41600038 .36865235H.5329895C.54599 .36865235 .58299258 .36865235 .58299258 .4046631 .58299258 .43066407 .5609894 .43066407 .5419922 .43066407H.19599915C.17199707 .43066407 .13699341 .43066407 .08999634 .38365174 .06298828 .3566742 .026992798 .30177308 .026992798 .29377748 .026992798 .2828064 .037994386 .2828064 .040985109 .2828064 .04899597 .2828064 .050994874 .28479005 .056991579 .29478456 .10598755 .36865235 .16699219 .36865235 .18699646 .36865235H.24398804C.20098877 .21791077 .13198853 .07614136 .125 .061172487 .117996219 .047195436 .10798645 .026229859 .10798645 .018234253 .10798645 .0052490236 .116989139-.0107421879 .13899231-.0107421879 .1749878-.0107421879 .18399048 .025222779 .20498657 .10609436L.272995 .36865235Z"/>
<path id="font_3_2" d="M.3039856 .6392822C.3039856 .6642761 .30299378 .666275 .27799989 .666275 .21598816 .60227969 .12399292 .60227969 .09298706 .60227969V.57128909C.11199951 .57128909 .17298889 .57128909 .22698975 .5972748V.08001709C.22698975 .042999269 .22399903 .0309906 .1309967 .0309906H.09899902V0C.1349945 .0029907227 .22399903 .0029907227 .2649994 .0029907227 .30599977 .0029907227 .3959961 .0029907227 .43199159 0V.0309906H.3999939C.30699159 .0309906 .3039856 .042999269 .3039856 .08001709V.6392822Z"/>
<clipPath id="clip_4">
<path transform="matrix(1,0,0,-1.00008,1.0960007,121.58644)" d="M0 2.02232H232.93079V119.77989H0Z"/>
</clipPath>
<clipPath id="clip_5">
<path transform="matrix(1,0,0,-1.00008,1.0960007,121.58644)" d="M0 2.02232H232.93079V119.77989H0Z"/>
</clipPath>
<clipPath id="clip_6">
<path transform="matrix(1,0,0,-1.00008,1.0960007,121.58644)" d="M0 2.02232H232.93079V119.77989H0Z"/>
</clipPath>
<clipPath id="clip_7">
<path transform="matrix(1,0,0,-1.00008,1.0960007,121.58644)" d="M0 2.02232H232.93079V119.77989H0Z"/>
</clipPath>
<path id="font_8_1" d="M.33399964 .30233766C.33999635 .32835389 .36299134 .42037965 .43299867 .42037965 .43798829 .42037965 .46199037 .42037965 .48298646 .40734864 .45498658 .402359 .43499757 .37734986 .43499757 .35334779 .43499757 .33735658 .44599916 .31835938 .47299195 .31835938 .49499513 .31835938 .5269928 .3363495 .5269928 .37635804 .5269928 .42837525 .46798707 .4423828 .43399049 .4423828 .37599183 .4423828 .34098817 .38935853 .32899476 .36634828 .3039856 .43237306 .25 .4423828 .22099304 .4423828 .116989139 .4423828 .05999756 .3133545 .05999756 .28834535 .05999756 .27833558 .069992069 .27833558 .07199097 .27833558 .07998657 .27833558 .08299255 .28033448 .084991458 .28933717 .11898804 .39535523 .18499756 .42037965 .21899414 .42037965 .23799134 .42037965 .272995 .4113617 .272995 .35334779 .272995 .32235719 .2559967 .25532533 .21899414 .11528015 .20298767 .053268434 .16799927 .011245728 .12399292 .011245728 .117996219 .011245728 .09498596 .011245728 .07398987 .024276734 .09899902 .029266358 .12098694 .05027771 .12098694 .07827759 .12098694 .105270389 .09899902 .11328125 .083999637 .11328125 .053985597 .11328125 .0289917 .08728027 .0289917 .055267335 .0289917 .009246826 .07899475-.0107421879 .12298584-.0107421879 .18899536-.0107421879 .22499085 .059280397 .22799683 .0652771 .23999024 .028274537 .27598573-.0107421879 .33599855-.0107421879 .43899537-.0107421879 .49598695 .118270877 .49598695 .14328003 .49598695 .1532898 .4869995 .1532898 .48399354 .1532898 .47499085 .1532898 .47299195 .14929199 .47099305 .14228821 .43798829 .03527832 .36999513 .011245728 .33799745 .011245728 .29899598 .011245728 .2829895 .043273927 .2829895 .07727051 .2829895 .09927368 .2889862 .121276859 .2999878 .16529846L.33399964 .30233766Z"/>
<path id="font_8_2" d="M.48599244 .38136292C.48999024 .39537049 .48999024 .39736939 .48999024 .40437318 .48999024 .42237855 .47599793 .43138124 .46099855 .43138124 .45098878 .43138124 .43499757 .42536927 .42599488 .41036988 .42399598 .405365 .41600038 .37435914 .4119873 .35635377 .40499879 .33035279 .397995 .30334474 .3919983 .27633668L.34700013 .09628296C.34298707 .08126831 .2999878 .011245728 .23399353 .011245728 .18299866 .011245728 .17199707 .055267335 .17199707 .0922699 .17199707 .1382904 .18899536 .20030213 .22299195 .28833009 .23899842 .3293457 .24299622 .3403473 .24299622 .36035157 .24299622 .405365 .21099854 .4423828 .16099549 .4423828 .06599426 .4423828 .0289917 .29733277 .0289917 .28833009 .0289917 .27833558 .038986207 .27833558 .040985109 .27833558 .050994874 .27833558 .051986696 .28033448 .056991579 .29634095 .083999637 .3903656 .12399292 .42037965 .1579895 .42037965 .1659851 .42037965 .18299866 .42037965 .18299866 .3883667 .18299866 .36335755 .17298889 .3373413 .1659851 .31834413 .12599182 .21231079 .10798645 .1552887 .10798645 .10827637 .10798645 .019256592 .17098999-.0107421879 .22999573-.0107421879 .2689972-.0107421879 .30299378 .0062561037 .33099366 .03425598 .31799317-.017745972 .30599977-.06674194 .2659912-.11973572 .23999024-.15385437 .20199585-.18309021 .1559906-.18309021 .14199829-.18309021 .09700012-.18005371 .07998657-.14074707 .09599304-.14074707 .10899353-.14074707 .12298584-.1287384 .1329956-.11973572 .14299011-.10673523 .14299011-.08773804 .14299011-.056747438 .115997318-.052734376 .10598755-.052734376 .08299255-.052734376 .049987794-.068740848 .049987794-.11773682 .049987794-.16796875 .09399414-.20507813 .1559906-.20507813 .25898744-.20507813 .3619995-.11373901 .3899994-.00074768069L.48599244 .38136292Z"/>
<path id="font_3_5" d="M.34399415 .42222596C.34399415 .4392395 .34399415 .4482422 .33198548 .4482422 .32699586 .4482422 .32499696 .4482422 .31199647 .43623353 .30999757 .43423463 .30099488 .42523194 .29499818 .42022706 .2639923 .44223023 .23298645 .4482422 .19898987 .4482422 .066986087 .4482422 .033996583 .37522889 .033996583 .324234 .033996583 .29223634 .04798889 .26623536 .070999149 .24424744 .10499573 .21324158 .14299011 .2062378 .19400025 .1972351 .24499512 .1872406 .2619934 .18424988 .28399659 .16723633 .2939911 .15924073 .31900025 .14024353 .31900025 .102249149 .31900025 .014251709 .21798706 .014251709 .20399475 .014251709 .101989749 .014251709 .07598877 .099243167 .06399536 .15324402 .06098938 .16323853 .05999756 .16925049 .04798889 .16925049 .033996583 .16925049 .033996583 .16123963 .033996583 .14324951V.01524353C.033996583-.0017547608 .033996583-.0107421879 .04598999-.0107421879 .051986696-.0107421879 .052993776-.009750366 .070999149 .009246826 .07499695 .01524353 .085998538 .028244019 .09098816 .0332489 .1329956-.007751465 .1789856-.0107421879 .20399475-.0107421879 .32699586-.0107421879 .36999513 .06124878 .36999513 .12825012 .36999513 .17324829 .34999085 .20024109 .32798768 .22323609 .2939911 .25624085 .2579956 .26324464 .18399048 .27723695 .1579895 .28224183 .084991458 .2952423 .084991458 .3522339 .084991458 .38423158 .10798645 .426239 .19898987 .426239 .30699159 .426239 .31399537 .3432312 .31599427 .3182373 .31698609 .3062439 .31698609 .30023194 .32998658 .30023194 .34399415 .30023194 .34399415 .30723573 .34399415 .3262329V.42222596Z"/>
<path id="font_3_3" d="M.18399048 .4423828 .039993287 .43138124V.40037538C.10398865 .40037538 .11299133 .3943634 .11299133 .34532167V.077041629C.11299133 .0309906 .101989749 .0309906 .035995485 .0309906V0C.08099365 .0019989014 .101989749 .0029907227 .1459961 .0029907227 .1619873 .0029907227 .20399475 .0029907227 .25299073 0V.0309906C.18798828 .0309906 .18399048 .035995485 .18399048 .075042728V.4423828M.18699646 .615921C.18699646 .6459198 .16299439 .6699219 .1329956 .6699219 .101989749 .6699219 .07899475 .6449127 .07899475 .615921 .07899475 .58691409 .101989749 .56192019 .1329956 .56192019 .16299439 .56192019 .18699646 .585907 .18699646 .615921Z"/>
<path id="font_3_4" d="M.18598938 .2592163C.18598938 .36532594 .26098634 .41737367 .32398988 .41737367 .3829956 .41737367 .3959961 .3683319 .3959961 .30825807V.077041629C.3959961 .0309906 .3849945 .0309906 .31900025 .0309906V0C.3659973 .0019989014 .3849945 .0029907227 .43299867 .0029907227 .48098756 .0029907227 .49398805 .0019989014 .5469971 0V.0309906C.49598695 .0309906 .47099305 .0309906 .46998597 .062026979V.25421144C.46998597 .33729554 .46998597 .36631776 .44198609 .40135194 .4189911 .42938233 .3809967 .4423828 .33099366 .4423828 .23799134 .4423828 .19499207 .3733368 .18099976 .3453064H.17999268V.4416504L.034988405 .43066407V.3996582C.102996829 .3996582 .11199951 .39266969 .11199951 .34370423V.07695007C.11199951 .0309906 .100997928 .0309906 .034988405 .0309906V0C.08198547 .0019989014 .100997928 .0029907227 .14898682 .0029907227 .19699097 .0029907227 .20999146 .0019989014 .2630005 0V.0309906C.19699097 .0309906 .18598938 .0309906 .18598938 .07695007V.2592163Z"/>
<path id="font_2_2" d="M.49198915 .40434266C.45498658 .39733888 .44400025 .3653412 .44400025 .3503418 .44400025 .33132936 .45799256 .31433106 .48298646 .31433106 .5109863 .31433106 .5379944 .33833314 .5379944 .3733368 .5379944 .41937257 .48799134 .4423828 .44099427 .4423828 .3809967 .4423828 .34599305 .38934327 .33399964 .3683319 .31498719 .41737367 .2709961 .4423828 .22299195 .4423828 .115997318 .4423828 .057998659 .31433106 .057998659 .28833009 .057998659 .2793274 .06498718 .2763214 .07199097 .2763214 .08099365 .2763214 .083999637 .2813263 .085998538 .287323 .116989139 .38633729 .18299866 .41737367 .22099304 .41737367 .25 .41737367 .27598573 .3983307 .27598573 .35133363 .27598573 .31533814 .23298645 .15530396 .21998596 .107284549 .21199036 .076293949 .18199158 .014251709 .1269989 .014251709 .10699463 .014251709 .085998538 .021270752 .07598877 .027282715 .102996829 .032287599 .12298584 .055282594 .12298584 .08128357 .12298584 .106292728 .10398865 .11729431 .084991458 .11729431 .055999757 .11729431 .02999878 .092285159 .02999878 .058288576 .02999878 .009246826 .083999637-.0107421879 .12599182-.0107421879 .18399048-.0107421879 .21798706 .03729248 .23298645 .06428528 .2579956-.0017547608 .31698609-.0107421879 .34399415-.0107421879 .45199586-.0107421879 .5089874 .11929321 .5089874 .14329529 .5089874 .14830017 .5059967 .15530396 .49598695 .15530396 .4850006 .15530396 .48399354 .1512909 .47898866 .1362915 .45700074 .06428528 .39898683 .014251709 .34700013 .014251709 .31799317 .014251709 .29100038 .032287599 .29100038 .08029175 .29100038 .10229492 .30499269 .15730286 .31399537 .1953125 .31799317 .21331787 .34498597 .32133485 .34700013 .32833863 .35899354 .3643341 .3889923 .41737367 .43998719 .41737367 .45799256 .41737367 .47698976 .41436769 .49198915 .40434266Z"/>
<path id="font_9_1" d="M.5629883 .39352418C.5279999 .38352967 .519989 .3545227 .519989 .33952333 .519989 .30752564 .54599 .30052186 .55999758 .30052186 .58898928 .30052186 .6179962 .32452394 .6179962 .3635254 .6179962 .41740418 .5589905 .44140626 .5079956 .44140626 .44198609 .44140626 .4019928 .3905182 .3909912 .371521 .37799073 .39649964 .33999635 .44140626 .2649994 .44140626 .1499939 .44140626 .08198547 .32252503 .08198547 .28749085 .08198547 .2824707 .085998538 .27345277 .099990848 .27345277 .11399841 .27345277 .116989139 .27946473 .11999512 .28848268 .14498902 .3695221 .21299744 .4084015 .2619934 .4084015 .31098939 .4084015 .32598878 .37652589 .32598878 .34352113 .32598878 .3315277 .32598878 .32252503 .31799317 .29148866 .29499818 .19825745 .272995 .10707092 .2679901 .095077518 .25299073 .05708313 .21699524 .023223877 .1749878 .023223877 .16899109 .023223877 .14099121 .023223877 .117996219 .038085939 .15699768 .051071168 .16099549 .08407593 .16099549 .09207153 .16099549 .11807251 .14099121 .13108826 .12098694 .13108826 .09298706 .13108826 .06298828 .10908508 .06298828 .06808472 .06298828 .011230469 .12599182-.009765625 .17298889-.009765625 .22999573-.009765625 .2709961 .029159546 .2899933 .060073854 .30999757 .018234253 .35798646-.009765625 .4149933-.009765625 .5329895-.009765625 .598999 .111083988 .598999 .14411927 .598999 .14611817 .59799197 .15815735 .5799866 .15815735 .56599429 .15815735 .56399539 .1511383 .5609894 .1421051 .5319977 .05508423 .46099855 .023223877 .4189911 .023223877 .3809967 .023223877 .35398866 .045074464 .35398866 .08708191 .35398866 .1060791 .35899354 .12808228 .36799623 .16316223L.3999939 .2935028C.4099884 .33251954 .4149933 .3505249 .43598939 .37452699 .44999696 .38952638 .47399903 .4084015 .5059967 .4084015 .5109863 .4084015 .54100039 .4084015 .5629883 .39352418Z"/>
<path id="font_10_1" d="M.32998658 .3310547C.42199708 .3310547 .48298646 .2737732 .48298646 .17437744 .48298646 .07237244 .41999818 .01852417 .33099366 .01852417 .31999208 .01852417 .20098877 .01852417 .1499939 .070373538 .19099427 .07637024 .20298767 .1073761 .20298767 .13137818 .20298767 .16838074 .1749878 .19238281 .14199829 .19238281 .10998535 .19238281 .07998657 .17137146 .07998657 .12937927 .07998657 .025512696 .19799805-.022460938 .33399964-.022460938 .49798585-.022460938 .59999087 .07637024 .59999087 .17337036 .59999087 .25567628 .5269928 .3260193 .41299439 .35205079 .5329895 .3909912 .5649872 .46684266 .5649872 .5228424 .5649872 .60491946 .46299745 .6660156 .33699037 .6660156 .21398926 .6660156 .114990238 .61395266 .114990238 .5238342 .114990238 .47683717 .15299988 .46484376 .17199707 .46484376 .20098877 .46484376 .22898865 .48583985 .22898865 .5218353 .22898865 .5448303 .21699524 .5728302 .18099976 .57884219 .22399903 .625 .31298829 .628006 .33399964 .628006 .40699769 .628006 .45899964 .5908661 .45899964 .5228424 .45899964 .46484376 .42099 .37402345 .31599427 .368042 .28799439 .3670349 .28399659 .3660431 .2579956 .365036 .24699402 .3640442 .23599243 .36305238 .23599243 .34805299 .23599243 .3310547 .24598694 .3310547 .2639923 .3310547H.32998658Z"/>
<path id="font_11_2" d="M.2939911 .33203126C.3789978 .33203126 .43598939 .274765 .43598939 .17237854 .43598939 .062408449 .36999513 .014511108 .29699708 .014511108 .269989 .014511108 .16699219 .020492554 .12199402 .07836914 .16099549 .0823822 .1769867 .10836792 .1769867 .13537598 .1769867 .16937256 .15299988 .19238281 .11999512 .19238281 .09298706 .19238281 .06298828 .17536927 .06298828 .13337708 .06298828 .034469606 .17298889-.021484375 .2999878-.021484375 .44799806-.021484375 .5469971 .07337952 .5469971 .17237854 .5469971 .24562073 .4909973 .3229828 .37199403 .35302735 .45098878 .37902833 .5149994 .44306947 .5149994 .5251007 .5149994 .60505679 .42099 .66503909 .30099488 .66503909 .18399048 .66503909 .09498596 .61105349 .09498596 .5290985 .09498596 .48609925 .12799073 .47409059 .147995 .47409059 .17399597 .47409059 .20098877 .49209596 .20098877 .5270996 .20098877 .5580902 .1789856 .5760956 .1519928 .5800934 .19898987 .6320343 .2899933 .6320343 .29899598 .6320343 .34999085 .6320343 .4139862 .60806277 .4139862 .5251007 .4139862 .47009278 .3829956 .37402345 .2829895 .36802674 .2649994 .36701966 .23799134 .36502076 .22898865 .36502076 .21899414 .36402894 .20799256 .36302186 .20799256 .34802247 .20799256 .33203126 .21899414 .33203126 .23599243 .33203126H.2939911Z"/>
<path id="font_11_1" d="M.23599243 .6578369C.23599243 .6938324 .20498657 .71484377 .17599488 .71484377 .14698792 .71484377 .115997318 .6938324 .115997318 .6578369L.1559906 .22177124C.15699768 .20576477 .15899658 .19676209 .17599488 .19676209 .19299317 .19676209 .19499207 .20576477 .19599915 .22177124L.23599243 .6578369M.23599243 .05999756C.23599243 .09199524 .20999146 .11999512 .17599488 .11999512 .14299011 .11999512 .115997318 .09199524 .115997318 .05999756 .115997318 .027999878 .14199829 0 .17599488 0 .20899964 0 .23599243 .027999878 .23599243 .05999756Z"/>
<path id="font_3_1" d="M.70599368 .22944641C.7200012 .22944641 .7409973 .22944641 .7409973 .25045777 .7409973 .27246095 .7220001 .27246095 .70599368 .27246095H.42099V.5578003C.42099 .573761 .42099 .59277346 .39898683 .59277346 .37799073 .59277346 .37799073 .57177737 .37799073 .5578003V.27246095H.09199524C.07798767 .27246095 .056991579 .27246095 .056991579 .25144959 .056991579 .22944641 .07598877 .22944641 .09199524 .22944641H.37799073V-.056793214C.37799073-.07279968 .37799073-.091796878 .3999939-.091796878 .42099-.091796878 .42099-.07080078 .42099-.056793214V.22944641H.70599368Z"/>
<path id="font_10_2" d="M.19599915 .55078127C.24899292 .53778079 .2939911 .53778079 .30499269 .53778079 .37298585 .53778079 .4229889 .55778506 .44898988 .57177737 .47299195 .583786 .54100039 .6267853 .54100039 .64878848 .54100039 .66378787 .5299988 .66578677 .5269928 .66578677 .5249939 .66578677 .522995 .66578677 .5119934 .66078189 .47399903 .6477814 .4119873 .63378909 .34599305 .63378909 .2889862 .63378909 .23399353 .64378359 .18099976 .66178897 .16999817 .66578677 .16799927 .66578677 .1659851 .66578677 .1519928 .66578677 .1519928 .6537781 .1519928 .63778689V.33763124C.1519928 .32061769 .1519928 .30760194 .17098999 .30760194 .18199158 .30760194 .18299866 .30960084 .19198609 .32061769 .22999573 .36468507 .2829895 .38671876 .35099793 .38671876 .40899659 .38671876 .44099427 .35266114 .45498658 .33163453 .47799684 .2975769 .48298646 .2525177 .48298646 .20446778 .48298646 .16246033 .47898866 .10646057 .43998719 .067489627 .394989 .021530152 .33799745 .01852417 .31599427 .01852417 .25099183 .01852417 .17799378 .04650879 .14698792 .10546875 .18899536 .10845947 .20298767 .13845825 .20298767 .1614685 .20298767 .19346619 .1789856 .21746826 .14698792 .21746826 .125 .21746826 .09098816 .20446778 .09098816 .15846253 .09098816 .0605011 .18699646-.022460938 .31799317-.022460938 .46699525-.022460938 .58898928 .07748413 .58898928 .20146179 .58898928 .3146057 .49198915 .41970826 .35299684 .41970826 .2899933 .41970826 .23899842 .40371705 .19599915 .37068177V.55078127Z"/>
<path id="font_11_3" d="M.16999817 .5549774C.20298767 .54599 .23799134 .5419922 .27198792 .5419922 .2939911 .5419922 .34999085 .5419922 .41299439 .5769806 .42999269 .58699038 .49198915 .6279907 .49198915 .6490326 .49198915 .6620331 .48199464 .66503909 .47799684 .66503909 .47499085 .66503909 .47399903 .66503909 .46299745 .661026 .4269867 .6470337 .37599183 .63298037 .31098939 .63298037 .2619934 .63298037 .20799256 .64201357 .16299439 .6590271 .15299988 .6630249 .14898682 .66503909 .14498902 .66503909 .1309967 .66503909 .1309967 .6540375 .1309967 .6380005V.33787538C.1309967 .32086183 .1309967 .30885316 .14898682 .30885316 .1579895 .30885316 .16099549 .31285096 .16799927 .32086183 .19299317 .35289 .23699951 .38693238 .31498719 .38693238 .43798829 .38693238 .43798829 .23677063 .43798829 .20472718 .43798829 .16567993 .43499757 .10961914 .4019928 .068573 .37098695 .030532837 .32499696 .014511108 .28199769 .014511108 .21299744 .014511108 .14399719 .05255127 .11999512 .11061096 .16899109 .11161804 .1749878 .15066529 .1749878 .16267395 .1749878 .18971253 .1539917 .21372986 .12298584 .21372986 .11399841 .21372986 .07199097 .20872498 .07199097 .15867615 .07199097 .0665741 .15899658-.021484375 .2849884-.021484375 .42199708-.021484375 .5379944 .07557678 .5379944 .20072937 .5379944 .31484986 .44599916 .4189453 .31698609 .4189453 .2519989 .4189453 .20199585 .39793397 .16999817 .37091065V.5549774Z"/>
</defs>
<path transform="matrix(1,0,0,-1.00008,1.0960007,121.58644)" stroke-width=".09962" stroke-linecap="butt" stroke-miterlimit="10" stroke-linejoin="miter" fill="none" stroke="#dfdfdf" d="M24.99345 2.02232V119.77989M207.9373 2.02232V119.77989"/>
<path transform="matrix(1,0,0,-1.00008,1.0960007,121.58644)" stroke-width=".09962" stroke-linecap="butt" stroke-miterlimit="10" stroke-linejoin="miter" fill="none" stroke="#dfdfdf" d="M0 18.84483H232.93079M0 102.95738H232.93079"/>
<path transform="matrix(1,0,0,-1.00008,1.0960007,121.58644)" stroke-width=".19925" stroke-linecap="butt" stroke-miterlimit="10" stroke-linejoin="miter" fill="none" stroke="#7f807f" d="M24.99345 58.77513V63.02708M207.9373 58.77513V63.02708"/>
<path transform="matrix(1,0,0,-1.00008,1.0960007,121.58644)" stroke-width=".19925" stroke-linecap="butt" stroke-miterlimit="10" stroke-linejoin="miter" fill="none" stroke="#7f807f" d="M114.3394 18.84483H118.59135M114.3394 102.95738H118.59135"/>
<path transform="matrix(1,0,0,-1.00008,1.0960007,121.58644)" stroke-width=".3985" stroke-linecap="butt" stroke-miterlimit="10" stroke-linejoin="miter" fill="none" stroke="#000000" d="M0 60.90111H230.93827"/>
<path transform="matrix(1,0,0,-1.00008,232.03427,60.680459)" d="M1.99252 0-1.19551 1.59401 0 0-1.19551-1.59401"/>
<path transform="matrix(1,0,0,-1.00008,1.0960007,121.58644)" stroke-width=".3985" stroke-linecap="butt" stroke-miterlimit="10" stroke-linejoin="miter" fill="none" stroke="#000000" d="M116.4654 2.02232V117.78737"/>
<path transform="matrix(0,-1.00008,-1,-0,117.5614,3.78965)" d="M1.99252 0-1.19551 1.59401 0 0-1.19551-1.59401"/>
<use data-text="&#x2212;" xlink:href="#font_1_1" transform="matrix(8.9664,0,0,-8.967117,19.708,71.64044)"/>
<use data-text="&#x03c0;" xlink:href="#font_2_1" transform="matrix(8.9664,0,0,-8.967117,26.876,71.64044)"/>
<use data-text="&#x03c0;" xlink:href="#font_2_1" transform="matrix(8.9664,0,0,-8.967117,206.23502,70.187328)"/>
<use data-text="&#x2212;" xlink:href="#font_1_1" transform="matrix(8.9664,0,0,-8.967117,100.14,105.21413)"/>
<use data-text="1" xlink:href="#font_3_2" transform="matrix(8.9664,0,0,-8.967117,107.308,105.21413)"/>
<use data-text="1" xlink:href="#font_3_2" transform="matrix(8.9664,0,0,-8.967117,107.308,21.510434)"/>
<g clip-path="url(#clip_4)">
<path transform="matrix(1,0,0,-1.00008,1.0960007,121.58644)" stroke-width="1.19553" stroke-linecap="butt" stroke-miterlimit="10" stroke-linejoin="miter" fill="none" stroke="#000000" d="M0 92.72803 .93544 91.82803 1.8709 90.89691 2.80637 89.93423 3.74182 88.94254 4.67729 87.92183 5.61276 86.87253 6.54822 85.79633 7.48369 84.69444 8.41914 83.56902 9.3546 82.41878 10.29005 81.24794 11.22552 80.05396 12.16098 78.84189 13.09645 77.61049 14.0319 76.36142 14.96738 75.09804 15.90283 73.8191 16.8383 72.52673 17.77374 71.22171 18.70921 69.90703 19.64467 68.58269 20.58014 67.25119 21.51561 65.9117 22.45107 64.56842 23.38654 63.22093 24.32199 61.87009 25.25746 60.5205 26.19292 59.17049 27.12837 57.82089 28.06383 56.47595 28.9993 55.13394 29.93475 53.79906 30.87022 52.47093 31.8057 51.15247 32.74115 49.84282 33.67662 48.54456 34.61208 47.25974 35.54753 45.98921 36.48299 44.73466 37.41846 43.4957 38.35391 42.27438 39.28938 41.07283 40.22484 39.89148 41.16031 38.73282 42.09576 37.59605 43.03123 36.48323 43.96669 35.39609 44.90215 34.33499 45.8376 33.30042 46.77307 32.29611 47.70854 31.32126 48.644 30.37625 49.57947 29.46278 50.51492 28.58171 51.4504 27.73343 52.38585 26.91965 53.3213 26.14201 54.25676 25.40015 55.19223 24.69403 56.12769 24.02492 57.06316 23.39406 57.99861 22.80234 58.93408 22.25055 59.86954 21.73915 60.80501 21.26686 61.74046 20.83536 62.67592 20.4455 63.61139 20.09601 64.54684 19.79068 65.48232 19.52783 66.41777 19.30746 67.35324 19.12914 68.2887 18.99457 69.22417 18.90202 70.15962 18.85367 71.09508 18.84988 72.03053 18.88899 72.966 18.97101 73.90146 19.09634 74.83693 19.26372 75.77238 19.47441 76.70786 19.72969 77.64331 20.02663 78.57878 20.36644 79.51424 20.7462 80.44969 21.16801 81.38516 21.63107 82.32062 22.13573 83.25609 22.67911 84.19154 23.26242 85.12701 23.88445 86.06247 24.54472 86.99794 25.24075 87.9334 25.97632 88.86885 26.74763 89.8043 27.553 90.73978 28.39372 91.67525 29.26723 92.6107 30.17313 93.54616 31.11139 94.48169 32.08037 95.41705 33.08046 96.35258 34.10706 97.28796 35.16225 98.22346 36.24352 99.15898 37.35043 100.09436 38.48218 101.02989 39.63618 101.96526 40.81293 102.90079 42.0107 103.8363 43.22655 104.77168 44.4613 105.7072 45.71417 106.64256 46.98132 107.57808 48.26361 108.51361 49.55853 109.44897 50.86565 110.3845 52.182 111.31989 53.50845 112.2554 54.84206 113.19092 56.1824 114.1263 57.52693 115.0618 58.87526 115.99718 60.22527 116.93271 61.57611 117.86823 62.92569 118.8036 64.27487 119.73912 65.61899 120.6745 66.9589 121.61002 68.29335 122.54553 69.61896 123.48091 70.93573 124.41643 72.24242 125.35179 73.53734 126.28732 74.81963 127.22284 76.08763 128.15822 77.3388 129.09374 78.57442 130.02912 79.79027 130.96465 80.98802 131.90016 82.16475 132.83554 83.31921 133.77104 84.45135 134.70642 85.55743 135.64194 86.63954 136.57747 87.6939 137.51284 88.72174 138.44837 89.7206 139.38375 90.68958 140.31926 91.62827 141.25478 92.53374 142.19014 93.40767 143.12566 94.24794 144.06104 95.05376 144.99655 95.82506 145.93209 96.56062 146.86746 97.25749 147.80298 97.91736 148.73836 98.53896 149.67388 99.12227 150.60938 99.66647 151.54476 100.17114 152.48029 100.63377 153.41565 101.05518 154.35118 101.43579 155.2867 101.77559 156.22208 102.07253 157.1576 102.32738 158.09297 102.53766 159.0285 102.70631 159.964 102.8312 160.89937 102.91322 161.8349 102.95233 162.77028 102.94855 163.7058 102.90018 164.64131 102.80766 165.57669 102.6731 166.51222 102.49518 167.44759 102.27522 168.3831 102.01196 169.31862 101.70747 170.254 101.35756 171.18952 100.96727 172.1249 100.5362 173.06041 100.06392 173.99594 99.55167 174.93132 99.0003 175.86684 98.409 176.80222 97.77731 177.73772 97.10945 178.67324 96.40334 179.60861 95.66061 180.54413 94.883 181.4795 94.06964 182.41504 93.22134 183.35056 92.33984 184.28594 91.4268 185.22145 90.4814 186.15682 89.50694 187.09233 88.50264 188.02787 87.46806 188.96323 86.4074 189.89876 85.31941 190.83414 84.20743 191.76966 83.07106 192.70517 81.912 193.64055 80.73065 194.57608 79.52867 195.51143 78.3082 196.44696 77.06964 197.38248 75.81342 198.31786 74.54375 199.25337 73.25893 200.18875 71.96063 201.12427 70.65102 202.0598 69.33212 202.99517 68.00441 203.93068 66.66911 204.86606 65.32796 205.80158 63.98216 206.73709 62.63298 207.67247 61.28299 208.60799 59.93256 209.54337 58.58255 210.4789 57.23506 211.41442 55.89052 212.3498 54.55229 213.2853 53.22037 214.22068 51.8956 215.15619 50.58134 216.0917 49.27632 217.02709 47.98438 217.96262 46.70544 218.89798 45.44206 219.83351 44.193 220.76903 42.9616 221.70439 41.74869 222.63991 40.55597 223.57529 39.38387 224.51082 38.2353 225.44634 37.10902 226.38172 36.00716 227.31723 34.93092 228.25261 33.88123 229.18813 32.86092 230.12364 31.86882 231.059 30.90614 231.99454 29.97502 232.92992 29.07462"/>
</g>
<g clip-path="url(#clip_5)">
<path transform="matrix(1,0,0,-1.00008,1.0960007,121.58644)" stroke-width=".79701" stroke-linecap="butt" stroke-dasharray="2.98883,2.98883" stroke-miterlimit="10" stroke-linejoin="miter" fill="none" stroke="#000000" d="M74.83693 .77208 75.77238 2.12328 76.70786 3.47449 77.64331 4.8257 78.57878 6.1769 79.51424 7.52809 80.44969 8.87929 81.38516 10.2305 82.32062 11.5817 83.25609 12.93289 84.19154 14.28409 85.12701 15.6353 86.06247 16.9865 86.99794 18.33769 87.9334 19.68889 88.86885 21.04012 89.8043 22.39131 90.73978 23.74251 91.67525 25.0937 92.6107 26.4449 93.54616 27.79611 94.48169 29.14738 95.41705 30.49846 96.35258 31.84975 97.28796 33.20082 98.22346 34.5521 99.15898 35.90338 100.09436 37.25446 101.02989 38.60574 101.96526 39.95683 102.90079 41.30812 103.8363 42.6594 104.77168 44.01047 105.7072 45.36176 106.64256 46.71283 107.57808 48.06412 108.51361 49.4154 109.44897 50.76646 110.3845 52.11775 111.31989 53.46883 112.2554 54.82011 113.19092 56.17139 114.1263 57.52248 115.0618 58.87376 115.99718 60.22484 116.93271 61.57613 117.86823 62.92741 118.8036 64.27849 119.73912 65.62978 120.6745 66.98083 121.61002 68.33212 122.54553 69.68341 123.48091 71.03448 124.41643 72.38576 125.35179 73.73683 126.28732 75.08813 127.22284 76.43942 128.15822 77.7905 129.09374 79.14178 130.02912 80.49286 130.96465 81.84415 131.90016 83.19542 132.83554 84.5465 133.77104 85.89778 134.70642 87.24886 135.64194 88.60014 136.57747 89.95142 137.51284 91.30249 138.44837 92.65378 139.38375 94.00487 140.31926 95.35616 141.25478 96.70743 142.19014 98.0585 143.12566 99.40979 144.06104 100.76086 144.99655 102.11215 145.93209 103.46344 146.86746 104.81451 147.80298 106.16579 148.73836 107.51686 149.67388 108.86815 150.60938 110.21944 151.54476 111.57051 152.48029 112.9218 153.41565 114.27287 154.35118 115.62416 155.2867 116.97545 156.22208 118.32652 157.1576 119.67781 158.09297 121.02888"/>
</g>
<g clip-path="url(#clip_6)">
<path transform="matrix(1,0,0,-1.00008,1.0960007,121.58644)" stroke-width=".79701" stroke-linecap="butt" stroke-dasharray=".79701,1.99255" stroke-miterlimit="10" stroke-linejoin="miter" fill="none" stroke="#000000" d="M29.93475 119.89803 30.87022 115.34451 31.8057 110.9214 32.74115 106.62024 33.67662 102.44945 34.61208 98.40062 35.54753 94.47377 36.48299 90.66466 37.41846 86.98172 38.35391 83.41234 39.28938 79.9523 40.22484 76.61423 41.16031 73.3897 42.09576 70.28293 43.03123 67.28133 43.96669 64.38484 44.90215 61.6019 45.8376 58.9241 46.77307 56.35567 47.70854 53.88817 48.644 51.52159 49.57947 49.26015 50.51492 47.09544 51.4504 45.02748 52.38585 43.06044 53.3213 41.18172 54.25676 39.40814 55.19223 37.7216 56.12769 36.12595 57.06316 34.62067 57.99861 33.20415 58.93408 31.87427 59.86954 30.63017 60.80501 29.47104 61.74046 28.39474 62.67592 27.39963 63.61139 26.48483 64.54684 25.64911 65.48232 24.89119 66.41777 24.20856 67.35324 23.60075 68.2887 23.06573 69.22417 22.60349 70.15962 22.21103 71.09508 21.88713 72.03053 21.63177 72.966 21.44287 73.90146 21.31789 74.83693 21.25685 75.77238 21.25763 76.70786 21.3198 77.64331 21.44084 78.57878 21.61954 79.51424 21.85455 80.44969 22.1451 81.38516 22.48947 82.32062 22.88559 83.25609 23.33257 84.19154 23.8296 85.12701 24.37502 86.06247 24.96625 86.99794 25.60333 87.9334 26.28462 88.86885 27.0081 89.8043 27.77278 90.73978 28.57716 91.67525 29.41986 92.6107 30.29958 93.54616 31.21486 94.48169 32.16434 95.41705 33.14641 96.35258 34.1601 97.28796 35.20358 98.22346 36.27586 99.15898 37.37532 100.09436 38.50038 101.02989 39.65001 101.96526 40.82253 102.90079 42.01685 103.8363 43.23137 104.77168 44.46454 105.7072 45.71532 106.64256 46.98196 107.57808 48.26343 108.51361 49.55817 109.44897 50.86455 110.3845 52.18163 111.31989 53.50752 112.2554 54.84131 113.19092 56.18137 114.1263 57.52611 115.0618 58.87454 115.99718 60.22487 116.93271 61.5761 117.86823 62.92662 118.8036 64.27486 119.73912 65.6198 120.6745 66.95966 121.61002 68.29347 122.54553 69.61958 123.48091 70.93643 124.41643 72.24303 125.35179 73.53757 126.28732 74.81906 127.22284 76.0859 128.15822 77.33652 129.09374 78.5699 130.02912 79.78424 130.96465 80.97858 131.90016 82.15126 132.83554 83.30078 133.77104 84.42603 134.70642 85.52539 135.64194 86.59763 136.57747 87.64131 137.51284 88.65485 138.44837 89.63713 139.38375 90.58653 140.31926 91.50186 141.25478 92.38168 142.19014 93.2244 143.12566 94.02885 144.06104 94.79344 144.99655 95.51697 145.93209 96.19864 146.86746 96.83517 147.80298 97.42651 148.73836 97.97177 149.67388 98.4689 150.60938 98.91597 151.54476 99.31279 152.48029 99.65683 153.41565 99.94766 154.35118 100.18279 155.2867 100.36197 156.22208 100.48247 157.1576 100.54388 158.09297 100.54538 159.0285 100.48442 159.964 100.35951 160.89937 100.17049 161.8349 99.91522 162.77028 99.59204 163.7058 99.19966 164.64131 98.73666 165.57669 98.20235 166.51222 97.59464 167.44759 96.91188 168.3831 96.15361 169.31862 95.31757 170.254 94.40306 171.18952 93.40845 172.1249 92.3316 173.06041 91.17255 173.99594 89.92856 174.93132 88.59938 175.86684 87.18211 176.80222 85.67755 177.73772 84.08238 178.67324 82.39551 179.60861 80.6193 180.54413 78.74905 181.4795 76.77348 182.41504 74.714 183.35056 72.54518 184.28594 70.28362 185.22145 67.91293 186.15682 65.44528 187.09233 62.87694 188.02787 60.19922 188.96323 57.41617 189.89876 54.52818 190.83414 51.52643 191.76966 48.41135 192.70517 45.1869 193.64055 41.8529 194.57608 38.39717 195.51143 34.82765 196.44696 31.1406 197.38248 27.33159 198.31786 23.40878 199.25337 19.35585 200.18875 15.18074 201.12427 10.88806 202.0598 6.46082 202.99517 1.91139"/>
</g>
<g clip-path="url(#clip_7)">
<path transform="matrix(1,0,0,-1.00008,1.0960007,121.58644)" stroke-width=".79701" stroke-linecap="butt" stroke-dasharray="2.98883,1.99255,.79701,1.99255" stroke-miterlimit="10" stroke-linejoin="miter" fill="none" stroke="#000000" d="M3.74182 0 4.67729 3.74672 5.61276 7.24994 6.54822 10.5252 7.48369 13.56708 8.41914 16.3974 9.3546 19.0229 10.29005 21.43896 11.22552 23.6683 12.16098 25.71216 13.09645 27.57729 14.0319 29.27588 14.96738 30.81046 15.90283 32.1852 16.8383 33.41864 17.77374 34.50826 18.70921 35.46371 19.64467 36.28374 20.58014 36.98936 21.51561 37.58357 22.45107 38.06168 23.38654 38.43506 24.32199 38.7151 25.25746 38.90007 26.19292 39.00179 27.12837 39.01772 28.06383 38.96843 28.9993 38.838 29.93475 38.65034 30.87022 38.39415 31.8057 38.0854 32.74115 37.72028 33.67662 37.31352 34.61208 36.86261 35.54753 36.37302 36.48299 35.84515 37.41846 35.29372 38.35391 34.7116 39.28938 34.09875 40.22484 33.47292 41.16031 32.83107 42.09576 32.18164 43.03123 31.51666 43.96669 30.84084 44.90215 30.16681 45.8376 29.4906 46.77307 28.82042 47.70854 28.15201 48.644 27.48921 49.57947 26.83995 50.51492 26.19987 51.4504 25.57246 52.38585 24.9653 53.3213 24.36943 54.25676 23.80484 55.19223 23.2567 56.12769 22.73198 57.06316 22.23332 57.99861 21.76195 58.93408 21.31859 59.86954 20.90526 60.80501 20.5237 61.74046 20.17444 62.67592 19.8583 63.61139 19.57684 64.54684 19.33116 65.48232 19.12233 66.41777 18.94983 67.35324 18.81548 68.2887 18.7192 69.22417 18.66281 70.15962 18.6454 71.09508 18.66737 72.03053 18.73055 72.966 18.83444 73.90146 18.97815 74.83693 19.16315 75.77238 19.38882 76.70786 19.65616 77.64331 19.96394 78.57878 20.31218 79.51424 20.70082 80.44969 21.1302 81.38516 21.5997 82.32062 22.10829 83.25609 22.65608 84.19154 23.24318 85.12701 23.86879 86.06247 24.5312 86.99794 25.23122 87.9334 25.96794 88.86885 26.74005 89.8043 27.54718 90.73978 28.38846 91.67525 29.26306 92.6107 30.1702 93.54616 31.10895 94.48169 32.07834 95.41705 33.07721 96.35258 34.10498 97.28796 35.16013 98.22346 36.24203 99.15898 37.3493 100.09436 38.48068 101.02989 39.63533 101.96526 40.81178 102.90079 42.00916 103.8363 43.226 104.77168 44.46088 105.7072 45.71292 106.64256 46.98042 107.57808 48.2625 108.51361 49.55763 109.44897 50.86427 110.3845 52.18147 111.31989 53.50746 112.2554 54.84128 113.19092 56.18137 114.1263 57.52611 115.0618 58.87454 115.99718 60.22487 116.93271 61.5761 117.86823 62.92662 118.8036 64.27486 119.73912 65.6198 120.6745 66.95969 121.61002 68.29353 122.54553 69.61972 123.48091 70.9367 124.41643 72.24356 125.35179 73.5385 126.28732 74.8206 127.22284 76.08833 128.15822 77.34018 129.09374 78.57527 130.02912 79.79195 130.96465 80.9893 131.90016 82.16592 132.83554 83.32047 133.77104 84.45201 134.70642 85.5592 135.64194 86.64105 136.57747 87.69643 137.51284 88.72403 138.44837 89.72311 139.38375 90.69243 140.31926 91.63121 141.25478 92.53847 142.19014 93.41307 143.12566 94.25443 144.06104 95.06148 144.99655 95.8336 145.93209 96.57071 146.86746 97.27017 147.80298 97.93268 148.73836 98.55812 149.67388 99.14532 150.60938 99.69316 151.54476 100.20245 152.48029 100.67162 153.41565 101.10127 154.35118 101.48999 155.2867 101.83873 156.22208 102.14594 157.1576 102.41249 158.09297 102.63887 159.0285 102.82396 159.964 102.96771 160.89937 103.07144 161.8349 103.1347 162.77028 103.15735 163.7058 103.14 164.64131 103.08287 165.57669 102.98721 166.51222 102.85295 167.44759 102.68033 168.3831 102.47107 169.31862 102.22505 170.254 101.94379 171.18952 101.62822 172.1249 101.27824 173.06041 100.8968 173.99594 100.4835 174.93132 100.04074 175.86684 99.5686 176.80222 99.07047 177.73772 98.54628 178.67324 97.99785 179.60861 97.43048 180.54413 96.8431 181.4795 96.22728 182.41504 95.60828 183.35056 94.96408 184.28594 94.31454 185.22145 93.64763 186.15682 92.97882 187.09233 92.30876 188.02787 91.6326 188.96323 90.95833 189.89876 90.29115 190.83414 89.6252 191.76966 88.96788 192.70517 88.3257 193.64055 87.70392 194.57608 87.0954 195.51143 86.5123 196.44696 85.95674 197.38248 85.42981 198.31786 84.94344 199.25337 84.48839 200.18875 84.07732 201.12427 83.72112 202.0598 83.40782 202.99517 83.1557 203.93068 82.95975 204.86606 82.83253 205.80158 82.77872 206.73709 82.79892 207.67247 82.89629 208.60799 83.08936 209.54337 83.36882 210.4789 83.74274 211.41442 84.22093 212.3498 84.81374 213.2853 85.51567 214.22068 86.33936 215.15619 87.29532 216.0917 88.38542 217.02709 89.61243 217.96262 90.9961 218.89798 92.52928 219.83351 94.22795 220.76903 96.09444 221.70439 98.12808 222.63991 100.36214 223.57529 102.781 224.51082 105.39818 225.44634 108.22986 226.38172 111.27327 227.31723 114.54526 228.25261 118.05046 229.18813 121.79936"/>
</g>
<use data-text="x" xlink:href="#font_8_1" transform="matrix(9.9626,0,0,-9.963397,224.813,57.16029)"/>
<use data-text="y" xlink:href="#font_8_2" transform="matrix(9.9626,0,0,-9.963397,121.081,9.60648)"/>
<path transform="matrix(1,0,0,-1.00008,58.374,151.0488)" stroke-width="1.19553" stroke-linecap="butt" stroke-miterlimit="10" stroke-linejoin="miter" fill="none" stroke="#000000" d="M0 0H8.50412 17.00826"/>
<use data-text="s" xlink:href="#font_3_5" transform="matrix(8.9664,0,0,-8.967117,82.40401,153.30197)"/>
<use data-text="i" xlink:href="#font_3_3" transform="matrix(8.9664,0,0,-8.967117,86.0354,153.30197)"/>
<use data-text="n" xlink:href="#font_3_4" transform="matrix(8.9664,0,0,-8.967117,88.59082,153.30197)"/>
<use data-text="x" xlink:href="#font_2_2" transform="matrix(8.9664,0,0,-8.967117,95.254,153.30197)"/>
<path transform="matrix(1,0,0,-1.00008,107.30101,151.0488)" stroke-width=".79701" stroke-linecap="butt" stroke-dasharray="2.98883,2.98883" stroke-miterlimit="10" stroke-linejoin="miter" fill="none" stroke="#000000" d="M0 0H8.50412 17.00826"/>
<use data-text="x" xlink:href="#font_2_2" transform="matrix(8.9664,0,0,-8.967117,148.414,152.2319)"/>
<path transform="matrix(1,0,0,-1.00008,58.374,164.22486)" stroke-width=".79701" stroke-linecap="butt" stroke-dasharray=".79701,1.99255" stroke-miterlimit="10" stroke-linejoin="miter" fill="none" stroke="#000000" d="M0 0H8.50412 17.00826"/>
<use data-text="x" xlink:href="#font_2_2" transform="matrix(8.9664,0,0,-8.967117,77.972,168.17417)"/>
<use data-text="&#x2212;" xlink:href="#font_1_1" transform="matrix(8.9664,0,0,-8.967117,85.243007,168.17417)"/>
<use data-text="x" xlink:href="#font_9_1" transform="matrix(5.9776,0,0,-5.9780786,95.654,164.50087)"/>
<use data-text="3" xlink:href="#font_10_1" transform="matrix(4.9813,0,0,-4.9816987,99.826,161.99167)"/>
<path transform="matrix(1,0,0,-1.00008,-38.988,116.66505)" stroke-width=".3786" stroke-linecap="butt" stroke-miterlimit="10" stroke-linejoin="miter" fill="none" stroke="#000000" d="M134.642-49.264H142.702"/>
<use data-text="3" xlink:href="#font_11_2" transform="matrix(5.9776,0,0,-5.9780786,96.80601,171.2174)"/>
<use data-text="!" xlink:href="#font_11_1" transform="matrix(5.9776,0,0,-5.9780786,100.45832,171.2174)"/>
<path transform="matrix(1,0,0,-1.00008,107.30101,164.22486)" stroke-width=".79701" stroke-linecap="butt" stroke-dasharray="2.98883,1.99255,.79701,1.99255" stroke-miterlimit="10" stroke-linejoin="miter" fill="none" stroke="#000000" d="M0 0H8.50412 17.00826"/>
<use data-text="x" xlink:href="#font_2_2" transform="matrix(8.9664,0,0,-8.967117,126.7,168.17417)"/>
<use data-text="&#x2212;" xlink:href="#font_1_1" transform="matrix(8.9664,0,0,-8.967117,133.972,168.17417)"/>
<use data-text="x" xlink:href="#font_9_1" transform="matrix(5.9776,0,0,-5.9780786,144.382,164.50087)"/>
<use data-text="3" xlink:href="#font_10_1" transform="matrix(4.9813,0,0,-4.9816987,148.554,161.99167)"/>
<path transform="matrix(1,0,0,-1.00008,-49.844999,116.66505)" stroke-width=".3786" stroke-linecap="butt" stroke-miterlimit="10" stroke-linejoin="miter" fill="none" stroke="#000000" d="M194.227-49.264H202.288"/>
<use data-text="3" xlink:href="#font_11_2" transform="matrix(5.9776,0,0,-5.9780786,145.534,171.2174)"/>
<use data-text="!" xlink:href="#font_11_1" transform="matrix(5.9776,0,0,-5.9780786,149.18631,171.2174)"/>
<use data-text="+" xlink:href="#font_3_1" transform="matrix(8.9664,0,0,-8.967117,155.686,168.17417)"/>
<use data-text="x" xlink:href="#font_9_1" transform="matrix(5.9776,0,0,-5.9780786,166.097,164.50087)"/>
<use data-text="5" xlink:href="#font_10_2" transform="matrix(4.9813,0,0,-4.9816987,170.269,161.99167)"/>
<path transform="matrix(1,0,0,-1.00008,-49.844999,116.66505)" stroke-width=".3786" stroke-linecap="butt" stroke-miterlimit="10" stroke-linejoin="miter" fill="none" stroke="#000000" d="M215.942-49.264H224.002"/>
<use data-text="5" xlink:href="#font_11_3" transform="matrix(5.9776,0,0,-5.9780786,167.249,171.2174)"/>
<use data-text="!" xlink:href="#font_11_1" transform="matrix(5.9776,0,0,-5.9780786,170.9013,171.2174)"/>
</svg>
