<svg xmlns="http://www.w3.org/2000/svg" xmlns:xlink="http://www.w3.org/1999/xlink" xmlns:inkscape="http://www.inkscape.org/namespaces/inkscape" version="1.1" width="249" height="148" viewBox="0 0 249 148">
<defs>
<path id="font_1_1" d="M.6749878 .22944641C.69299319 .22944641 .71199038 .22944641 .71199038 .25144959 .71199038 .27246095 .69200137 .27246095 .6749878 .27246095H.12298584C.10598755 .27246095 .085998538 .27246095 .085998538 .25144959 .085998538 .22944641 .10499573 .22944641 .12298584 .22944641H.6749878Z"/>
<path id="font_2_2" d="M.30499269 .35195924C.397995 .38697816 .44198609 .46006776 .44198609 .5290985 .44198609 .60606387 .35699464 .6660156 .25299073 .6660156 .14898682 .6660156 .070999149 .60705569 .070999149 .5310974 .070999149 .49809266 .09298706 .47909547 .12199402 .47909547 .15098572 .47909547 .17199707 .50009158 .17199707 .5290985 .17199707 .5640869 .147995 .57910159 .11399841 .57910159 .13999939 .6210327 .20098877 .64100649 .25 .64100649 .33299256 .64100649 .34899903 .5750885 .34899903 .52809146 .34899903 .49809266 .34298707 .45005799 .31799317 .41201783 .2869873 .36695863 .2519989 .36495973 .22299195 .36296083 .19799805 .36094667 .19599915 .36094667 .18798828 .36094667 .1789856 .35995484 .17098999 .35894776 .17098999 .34794618 .17098999 .33496095 .1789856 .33496095 .19599915 .33496095H.24299622C.32998658 .33496095 .36799623 .2646637 .36799623 .16937256 .36799623 .04145813 .2999878 .0055389406 .24899292 .0055389406 .22999573 .0055389406 .1329956 .010528564 .08799744 .0843811 .12399292 .07939148 .1519928 .10437012 .1519928 .13838196 .1519928 .17137146 .1269989 .19238281 .09799194 .19238281 .07299805 .19238281 .042999269 .17736817 .042999269 .13537598 .042999269 .046447755 .13598633-.022460938 .2519989-.022460938 .3769989-.022460938 .46998597 .06741333 .46998597 .16937256 .46998597 .25663758 .40098573 .33093263 .30499269 .35195924Z"/>
<path id="font_2_1" d="M.3039856 .6392822C.3039856 .6642761 .30299378 .666275 .27799989 .666275 .21598816 .60227969 .12399292 .60227969 .09298706 .60227969V.57128909C.11199951 .57128909 .17298889 .57128909 .22698975 .5972748V.08001709C.22698975 .042999269 .22399903 .0309906 .1309967 .0309906H.09899902V0C.1349945 .0029907227 .22399903 .0029907227 .2649994 .0029907227 .30599977 .0029907227 .3959961 .0029907227 .43199159 0V.0309906H.3999939C.30699159 .0309906 .3039856 .042999269 .3039856 .08001709V.6392822Z"/>
<path id="font_2_3" d="M.13398743 .33073426C.13398743 .43276979 .14498902 .4897766 .17199707 .54177859 .19198609 .58277896 .24099732 .64100649 .31498719 .64100649 .33499146 .64100649 .3809967 .63697817 .4039917 .6007843 .36698915 .6007843 .35099793 .5817871 .35099793 .55477908 .35099793 .5287781 .36898805 .50878909 .39698792 .50878909 .4249878 .50878909 .44400025 .5267792 .44400025 .55677798 .44400025 .612854 .4039917 .6660156 .31298829 .6660156 .18399048 .6660156 .042999269 .53878787 .042999269 .3157196 .042999269 .044555665 .16499329-.022460938 .25898744-.022460938 .36999513-.022460938 .46998597 .0705719 .46998597 .20265198 .46998597 .32972718 .37799073 .42578126 .2649994 .42578126 .20498657 .42578126 .1619873 .39076234 .13398743 .33073426M.2579956 .0055389406C.20098877 .0055389406 .16799927 .05256653 .1559906 .08157349 .13699341 .12660218 .13598633 .20965576 .13598633 .22566223 .13598633 .29270936 .16699219 .4007721 .2630005 .4007721 .2789917 .4007721 .32798768 .4007721 .3600006 .33872987 .3789978 .30070497 .3789978 .25167848 .3789978 .20365906 .3789978 .15562439 .3789978 .1065979 .3600006 .06956482 .32899476 .012542725 .2849884 .0055389406 .2579956 .0055389406Z"/>
<clipPath id="clip_3">
<path transform="matrix(1.00002,0,0,-1,1.095665,198.983)" d="M0 52.32944H246.47879V197.18605H0Z"/>
</clipPath>
<clipPath id="clip_4">
<path transform="matrix(1.00002,0,0,-1,1.095665,198.983)" d="M0 52.32944H246.47879V197.18605H0Z"/>
</clipPath>
<clipPath id="clip_5">
<path transform="matrix(1.00002,0,0,-1,1.095665,198.983)" d="M0 52.32944H246.47879V197.18605H0Z"/>
</clipPath>
<clipPath id="clip_6">
<path transform="matrix(1.00002,0,0,-1,1.095665,198.983)" d="M0 52.32944H246.47879V197.18605H0Z"/>
</clipPath>
<path id="font_7_72" d="M.25498963 0V.0309906C.18798828 .0309906 .1769867 .0309906 .1769867 .07601929V.69433596L.032989503 .6826172V.6516113C.102996829 .6516113 .11099243 .64460757 .11099243 .5956421V.07595825C.11099243 .0309906 .099990848 .0309906 .032989503 .0309906V0L.14399719 .0029907227 .25498963 0Z"/>
<path id="font_7_81" d="M.47099305 .21424866C.47099305 .34223939 .37098695 .4482422 .25 .4482422 .125 .4482422 .027999878 .3392334 .027999878 .21424866 .027999878 .085250858 .13198853-.0107421879 .24899292-.0107421879 .36999513-.0107421879 .47099305 .087249759 .47099305 .21424866M.3880005 .22224427C.3880005 .18624878 .3880005 .13224793 .3659973 .08824158 .34399415 .04324341 .2999878 .014251709 .25 .014251709 .20698548 .014251709 .16299439 .035247804 .13598633 .08125305 .11099243 .12524414 .11099243 .18624878 .11099243 .22224427 .11099243 .26124574 .11099243 .31523133 .1349945 .35923768 .1619873 .40522767 .20899964 .426239 .24899292 .426239 .29299928 .426239 .33599855 .40423585 .3619995 .36123658 .3880005 .3182373 .3880005 .26023866 .3880005 .22224427Z"/>
<path id="font_7_43" d="M.4149933 .119140628C.4149933 .12911988 .40499879 .12911988 .4019928 .12911988 .3929901 .12911988 .3909912 .12512207 .3889923 .119140628 .3600006 .026229859 .29499818 .014251709 .2579956 .014251709 .20498657 .014251709 .116989139 .0572052 .116989139 .21801758 .116989139 .38093568 .19898987 .42323304 .2519989 .42323304 .26098634 .42323304 .32398988 .42222596 .35899354 .38594056 .31799317 .38293458 .31199647 .3529358 .31199647 .3399353 .31199647 .31393434 .32998658 .2939453 .35798646 .2939453 .38398744 .2939453 .4039917 .3109436 .4039917 .34094239 .4039917 .40911866 .32798768 .4482422 .25099183 .4482422 .12599182 .4482422 .033996583 .3399353 .033996583 .21601868 .033996583 .08816528 .1329956-.0107421879 .24899292-.0107421879 .3829956-.0107421879 .4149933 .10914612 .4149933 .119140628Z"/>
<path id="font_7_28" d="M.48298646 .08912659V.14511109H.45799256V.08912659C.45799256 .03112793 .43299867 .025131226 .42199708 .025131226 .3889923 .025131226 .3849945 .070129398 .3849945 .07511902V.27508546C.3849945 .31707765 .3849945 .3560791 .34899903 .39312745 .30999757 .43223573 .2599945 .4482422 .21199036 .4482422 .12998963 .4482422 .06098938 .40115357 .06098938 .335083 .06098938 .30508424 .08099365 .28808595 .10699463 .28808595 .1349945 .28808595 .15299988 .30807496 .15299988 .33407594 .15299988 .3460846 .147995 .37908937 .101989749 .38008119 .1289978 .41519166 .17799378 .426239 .20999146 .426239 .25898744 .426239 .31599427 .38710023 .31599427 .29808045V.26107789C.2649994 .25808717 .19499207 .25508119 .13198853 .22509766 .056991579 .19110108 .03199768 .13911438 .03199768 .09512329 .03199768 .014251709 .1289978-.0107421879 .19198609-.0107421879 .2579956-.0107421879 .3039856 .029251099 .32299806 .07624817 .32699586 .036132814 .35398866-.005859375 .40098573-.005859375 .42199708-.005859375 .48298646 .008132935 .48298646 .08912659M.31599427 .14013672C.31599427 .04525757 .24398804 .011245728 .19898987 .011245728 .1499939 .011245728 .10899353 .04624939 .10899353 .09625244 .10899353 .15124512 .15098572 .23425293 .31599427 .24024964V.14013672Z"/>
<path id="font_7_75" d="M.8129883 0V.0309906C.7609863 .0309906 .73599246 .0309906 .7350006 .061019899V.25221253C.7350006 .3383026 .7350006 .36932374 .70399478 .405365 .6899872 .42237855 .6569977 .4423828 .598999 .4423828 .5149994 .4423828 .47099305 .38233949 .45399476 .34429933 .43998719 .43138124 .3659973 .4423828 .32099916 .4423828 .24798584 .4423828 .20098877 .39935304 .17298889 .33729554V.4423828L.03199768 .43066407V.3996582C.101989749 .3996582 .10998535 .39266969 .10998535 .34370423V.07595825C.10998535 .0309906 .09899902 .0309906 .03199768 .0309906V0L.14498902 .0029907227 .25698854 0V.0309906C.18998719 .0309906 .1789856 .0309906 .1789856 .07595825V.25978089C.1789856 .36431886 .25 .42037965 .31399537 .42037965 .3769989 .42037965 .3880005 .36631776 .3880005 .30926515V.076034549C.3880005 .0309906 .3769989 .0309906 .30999757 .0309906V0L.4229889 .0029907227 .5349884 0V.0309906C.46798707 .0309906 .45700074 .0309906 .45700074 .076034549V.2602234C.45700074 .36431886 .5279999 .42037965 .59199526 .42037965 .6549988 .42037965 .66600039 .36631776 .66600039 .30926515V.076034549C.66600039 .0309906 .6549988 .0309906 .58799746 .0309906V0L.70098879 .0029907227 .8129883 0Z"/>
<path id="font_7_116" d="M.5159912 0V.0309906C.46199037 .03125 .44400025 .0332489 .42099 .0622406L.2869873 .23493958C.31698609 .27287293 .35499574 .3217926 .3789978 .3477478 .4099884 .38368226 .45098878 .39866639 .49798585 .3996582V.43066407C.47200013 .4286499 .44198609 .42765809 .41600038 .42765809 .38598634 .42765809 .33299256 .42965699 .31999208 .43066407V.3996582C.34098817 .3973999 .34899903 .3843994 .34899903 .3684082 .34899903 .35240174 .33898927 .33940126 .33399964 .33340455L.27198792 .2554016 .19400025 .35639955C.18499756 .3664093 .18499756 .3684082 .18499756 .3744049 .18499756 .3894043 .19999695 .39840699 .21998596 .39941407V.43066407L.11199951 .42765809C.09098816 .42765809 .04399109 .4286499 .016998291 .43066407V.3996582C.08699036 .3996582 .08799744 .39865113 .1349945 .3387146L.23399353 .20982361C.18699646 .14988709 .18699646 .14788819 .13999939 .09094238 .09199524 .032989503 .032989503 .0309906 .011993408 .0309906V0C.037994386 .0019989014 .068984989 .0029907227 .09498596 .0029907227L.18998719 0V.0309906C.16799927 .034240724 .16099549 .04724121 .16099549 .0622406 .16099549 .084243778 .18998719 .117248538 .25099183 .1892395L.32699586 .08924866C.33499146 .07824707 .34799195 .0622406 .34799195 .056243898 .34799195 .04724121 .33898927 .03224182 .31199647 .03125V0L.41999818 .0029907227C.44699098 .0029907227 .48599244 .0019989014 .5159912 0Z"/>
<path id="font_7_66" d="M.24699402 0V.0309906C.18099976 .0309906 .1769867 .035995485 .1769867 .075042728V.4423828L.036987306 .43066407V.3996582C.101989749 .3996582 .11099243 .3936615 .11099243 .3447113V.07595825C.11099243 .0309906 .099990848 .0309906 .032989503 .0309906V0L.14299011 .0029907227C.17799378 .0029907227 .21299744 .0009918213 .24699402 0M.19198609 .603775C.19198609 .6307678 .16899109 .6567688 .13899231 .6567688 .10499573 .6567688 .084991458 .6287689 .084991458 .603775 .084991458 .57676699 .10798645 .55078127 .13798523 .55078127 .17199707 .55078127 .19198609 .5787811 .19198609 .603775Z"/>
<path id="font_7_77" d="M.5349884 0V.0309906C.48298646 .0309906 .45799256 .0309906 .45700074 .061019899V.25221253C.45700074 .3383026 .45700074 .36932374 .42599488 .405365 .4119873 .42237855 .3789978 .4423828 .32099916 .4423828 .24798584 .4423828 .20098877 .39935304 .17298889 .33729554V.4423828L.03199768 .43066407V.3996582C.101989749 .3996582 .10998535 .39266969 .10998535 .34370423V.07595825C.10998535 .0309906 .09899902 .0309906 .03199768 .0309906V0L.14498902 .0029907227 .25698854 0V.0309906C.18998719 .0309906 .1789856 .0309906 .1789856 .07595825V.25978089C.1789856 .36431886 .25 .42037965 .31399537 .42037965 .3769989 .42037965 .3880005 .36631776 .3880005 .30926515V.076034549C.3880005 .0309906 .3769989 .0309906 .30999757 .0309906V0L.4229889 .0029907227 .5349884 0Z"/>
<path id="font_7_126" d="M.5269928 0V.0309906C.45999146 .0309906 .44898988 .0309906 .44898988 .07595825V.69407656L.41299439 .6880646C.40899659 .6880646 .4079895 .68907168 .4039917 .69107058 .37199403 .7050781 .33099366 .7050781 .31999208 .7050781 .21499634 .7050781 .10598755 .6490326 .10598755 .5448456V.43066407H.026992798V.3996582H.10598755V.07595825C.10598755 .0309906 .09498596 .0309906 .027999878 .0309906V0L.13899231 .0029907227 .25 0V.0309906C.18299866 .0309906 .17199707 .0309906 .17199707 .07595825V.3996582H.3829956V.07595825C.3829956 .0309906 .37199403 .0309906 .30499269 .0309906V0L.41600038 .0029907227 .5269928 0M.3829956 .43066407H.16899109V.54385378C.16899109 .6370697 .24499512 .68307498 .31900025 .68307498 .32798768 .68307498 .35499574 .68307498 .3829956 .67407229 .37399293 .6700592 .35798646 .66004946 .35798646 .6340027 .35798646 .6159668 .3659973 .60095217 .3829956 .5949402V.43066407Z"/>
<path id="font_7_50" d="M.4149933 .11933899C.4149933 .12934876 .40699769 .13134766 .4019928 .13134766 .3929901 .13134766 .3909912 .12535095 .3889923 .11734009 .35398866 .014251709 .2639923 .014251709 .2539978 .014251709 .20399475 .014251709 .1639862 .044281007 .14099121 .08131409 .11099243 .12934876 .11099243 .19540406 .11099243 .23144531H.3899994C.4119873 .23144531 .4149933 .23144531 .4149933 .2524414 .4149933 .35131837 .36099244 .4482422 .23599243 .4482422 .11999512 .4482422 .027999878 .34532167 .027999878 .22042847 .027999878 .08631897 .1329956-.0107421879 .24798584-.0107421879 .36999513-.0107421879 .4149933 .10032654 .4149933 .11933899M.34899903 .2524414H.11199951C.117996219 .40126039 .20199585 .426239 .23599243 .426239 .33898927 .426239 .34899903 .2913971 .34899903 .2524414Z"/>
<path id="font_7_105" d="M.33198548 .12385559V.18066406H.30699159V.12585449C.30699159 .052108766 .2769928 .014251709 .23999024 .014251709 .17298889 .014251709 .17298889 .10491943 .17298889 .12187195V.3996582H.31599427V.43066407H.17298889V.6142578H.147995C.14698792 .5324249 .116989139 .42565919 .018997193 .42166139V.3996582H.10398865V.12408447C.10398865 .0012512207 .19699097-.0107421879 .23298645-.0107421879 .3039856-.0107421879 .33198548 .060180665 .33198548 .12408447V.12385559Z"/>
<path id="font_8_2" d="M.48599244 .38136292C.48999024 .39537049 .48999024 .39736939 .48999024 .40437318 .48999024 .42237855 .47599793 .43138124 .46099855 .43138124 .45098878 .43138124 .43499757 .42536927 .42599488 .41036988 .42399598 .405365 .41600038 .37435914 .4119873 .35635377 .40499879 .33035279 .397995 .30334474 .3919983 .27633668L.34700013 .09628296C.34298707 .08126831 .2999878 .011245728 .23399353 .011245728 .18299866 .011245728 .17199707 .055267335 .17199707 .0922699 .17199707 .1382904 .18899536 .20030213 .22299195 .28833009 .23899842 .3293457 .24299622 .3403473 .24299622 .36035157 .24299622 .405365 .21099854 .4423828 .16099549 .4423828 .06599426 .4423828 .0289917 .29733277 .0289917 .28833009 .0289917 .27833558 .038986207 .27833558 .040985109 .27833558 .050994874 .27833558 .051986696 .28033448 .056991579 .29634095 .083999637 .3903656 .12399292 .42037965 .1579895 .42037965 .1659851 .42037965 .18299866 .42037965 .18299866 .3883667 .18299866 .36335755 .17298889 .3373413 .1659851 .31834413 .12599182 .21231079 .10798645 .1552887 .10798645 .10827637 .10798645 .019256592 .17098999-.0107421879 .22999573-.0107421879 .2689972-.0107421879 .30299378 .0062561037 .33099366 .03425598 .31799317-.017745972 .30599977-.06674194 .2659912-.11973572 .23999024-.15385437 .20199585-.18309021 .1559906-.18309021 .14199829-.18309021 .09700012-.18005371 .07998657-.14074707 .09599304-.14074707 .10899353-.14074707 .12298584-.1287384 .1329956-.11973572 .14299011-.10673523 .14299011-.08773804 .14299011-.056747438 .115997318-.052734376 .10598755-.052734376 .08299255-.052734376 .049987794-.068740848 .049987794-.11773682 .049987794-.16796875 .09399414-.20507813 .1559906-.20507813 .25898744-.20507813 .3619995-.11373901 .3899994-.00074768069L.48599244 .38136292Z"/>
<path id="font_9_2" d="M.68699648 .32714845C.70199587 .32714845 .72099307 .32714845 .72099307 .34713746 .72099307 .36714173 .70199587 .36714173 .6879883 .36714173H.08898926C.07499695 .36714173 .055999757 .36714173 .055999757 .34713746 .055999757 .32714845 .07499695 .32714845 .08999634 .32714845H.68699648M.6879883 .13284302C.70199587 .13284302 .72099307 .13284302 .72099307 .15284729 .72099307 .17285156 .70199587 .17285156 .68699648 .17285156H.08999634C.07499695 .17285156 .055999757 .17285156 .055999757 .15284729 .055999757 .13284302 .07499695 .13284302 .08898926 .13284302H.6879883Z"/>
<path id="font_8_1" d="M.33399964 .30233766C.33999635 .32835389 .36299134 .42037965 .43299867 .42037965 .43798829 .42037965 .46199037 .42037965 .48298646 .40734864 .45498658 .402359 .43499757 .37734986 .43499757 .35334779 .43499757 .33735658 .44599916 .31835938 .47299195 .31835938 .49499513 .31835938 .5269928 .3363495 .5269928 .37635804 .5269928 .42837525 .46798707 .4423828 .43399049 .4423828 .37599183 .4423828 .34098817 .38935853 .32899476 .36634828 .3039856 .43237306 .25 .4423828 .22099304 .4423828 .116989139 .4423828 .05999756 .3133545 .05999756 .28834535 .05999756 .27833558 .069992069 .27833558 .07199097 .27833558 .07998657 .27833558 .08299255 .28033448 .084991458 .28933717 .11898804 .39535523 .18499756 .42037965 .21899414 .42037965 .23799134 .42037965 .272995 .4113617 .272995 .35334779 .272995 .32235719 .2559967 .25532533 .21899414 .11528015 .20298767 .053268434 .16799927 .011245728 .12399292 .011245728 .117996219 .011245728 .09498596 .011245728 .07398987 .024276734 .09899902 .029266358 .12098694 .05027771 .12098694 .07827759 .12098694 .105270389 .09899902 .11328125 .083999637 .11328125 .053985597 .11328125 .0289917 .08728027 .0289917 .055267335 .0289917 .009246826 .07899475-.0107421879 .12298584-.0107421879 .18899536-.0107421879 .22499085 .059280397 .22799683 .0652771 .23999024 .028274537 .27598573-.0107421879 .33599855-.0107421879 .43899537-.0107421879 .49598695 .118270877 .49598695 .14328003 .49598695 .1532898 .4869995 .1532898 .48399354 .1532898 .47499085 .1532898 .47299195 .14929199 .47099305 .14228821 .43798829 .03527832 .36999513 .011245728 .33799745 .011245728 .29899598 .011245728 .2829895 .043273927 .2829895 .07727051 .2829895 .09927368 .2889862 .121276859 .2999878 .16529846L.33399964 .30233766Z"/>
<path id="font_9_1" d="M.2939911 .64004519C.2939911 .66400149 .2939911 .6660156 .2709961 .6660156 .20899964 .60227969 .12098694 .60227969 .08898926 .60227969V.57128909C.10899353 .57128909 .16799927 .57128909 .21998596 .5972748V.07902527C.21998596 .042999269 .21699524 .0309906 .1269989 .0309906H.09498596V0C.12998963 .0029907227 .21699524 .0029907227 .25698854 .0029907227 .29699708 .0029907227 .38398744 .0029907227 .4189911 0V.0309906H.3869934C.29699708 .0309906 .2939911 .041992189 .2939911 .07902527V.64004519Z"/>
<path id="font_10_1" d="M.6589966 .23046875C.6759949 .23046875 .69400027 .23046875 .69400027 .25045777 .69400027 .27046205 .6759949 .27046205 .6589966 .27046205H.117996219C.100997928 .27046205 .08299255 .27046205 .08299255 .25045777 .08299255 .23046875 .100997928 .23046875 .117996219 .23046875H.6589966Z"/>
</defs>
<path transform="matrix(1.00002,0,0,-1,1.095665,198.983)" stroke-width=".09962" stroke-linecap="butt" stroke-miterlimit="10" stroke-linejoin="miter" fill="none" stroke="#dfdfdf" d="M30.80984 52.32944V197.18605M92.42953 52.32944V197.18605M154.04924 52.32944V197.18605M215.66895 52.32944V197.18605"/>
<path transform="matrix(1.00002,0,0,-1,1.095665,198.983)" stroke-width=".09962" stroke-linecap="butt" stroke-miterlimit="10" stroke-linejoin="miter" fill="none" stroke="#dfdfdf" d="M0 70.43652H246.47879M0 97.59714H246.47879M0 151.91837H246.47879M0 179.07898H246.47879"/>
<path transform="matrix(1.00002,0,0,-1,1.095665,198.983)" stroke-width=".19925" stroke-linecap="butt" stroke-miterlimit="10" stroke-linejoin="miter" fill="none" stroke="#7f807f" d="M30.80984 122.63187V126.88364M92.42953 122.63187V126.88364M154.04924 122.63187V126.88364M215.66895 122.63187V126.88364"/>
<path transform="matrix(1.00002,0,0,-1,1.095665,198.983)" stroke-width=".19925" stroke-linecap="butt" stroke-miterlimit="10" stroke-linejoin="miter" fill="none" stroke="#7f807f" d="M121.11345 70.43652H125.36531M121.11345 97.59714H125.36531M121.11345 151.91837H125.36531M121.11345 179.07898H125.36531"/>
<path transform="matrix(1.00002,0,0,-1,1.095665,198.983)" stroke-width=".3985" stroke-linecap="butt" stroke-miterlimit="10" stroke-linejoin="miter" fill="none" stroke="#000000" d="M0 124.75775H244.48627"/>
<path transform="matrix(1.00002,0,0,-1,245.58683,74.22525)" d="M1.99252 0-1.19551 1.59401 0 0-1.19551-1.59401"/>
<path transform="matrix(1.00002,0,0,-1,1.095665,198.983)" stroke-width=".3985" stroke-linecap="butt" stroke-miterlimit="10" stroke-linejoin="miter" fill="none" stroke="#000000" d="M123.2394 52.32944V195.19353"/>
<path transform="matrix(0,-1,-1.00002,-0,124.33754,3.7894746)" d="M1.99252 0-1.19551 1.59401 0 0-1.19551-1.59401"/>
<use data-text="&#x2212;" xlink:href="#font_1_1" transform="matrix(8.966579,0,0,-8.9664,26.018166,85.649)"/>
<use data-text="3" xlink:href="#font_2_2" transform="matrix(8.966579,0,0,-8.9664,33.186304,85.649)"/>
<use data-text="&#x2212;" xlink:href="#font_1_1" transform="matrix(8.966579,0,0,-8.9664,87.6394,85.649)"/>
<use data-text="1" xlink:href="#font_2_1" transform="matrix(8.966579,0,0,-8.9664,94.80753,85.649)"/>
<use data-text="1" xlink:href="#font_2_1" transform="matrix(8.966579,0,0,-8.9664,152.84369,85.649)"/>
<use data-text="3" xlink:href="#font_2_2" transform="matrix(8.966579,0,0,-8.9664,214.46494,85.649)"/>
<use data-text="&#x2212;" xlink:href="#font_1_1" transform="matrix(8.966579,0,0,-8.9664,106.91579,131.021)"/>
<use data-text="6" xlink:href="#font_2_3" transform="matrix(8.966579,0,0,-8.9664,114.08392,131.021)"/>
<use data-text="&#x2212;" xlink:href="#font_1_1" transform="matrix(8.966579,0,0,-8.9664,106.91579,103.86)"/>
<use data-text="3" xlink:href="#font_2_2" transform="matrix(8.966579,0,0,-8.9664,114.08392,103.86)"/>
<use data-text="3" xlink:href="#font_2_2" transform="matrix(8.966579,0,0,-8.9664,114.08393,49.953996)"/>
<use data-text="6" xlink:href="#font_2_3" transform="matrix(8.966579,0,0,-8.9664,114.08393,22.793)"/>
<g clip-path="url(#clip_3)">
<path transform="matrix(1.00002,0,0,-1,1.095665,198.983)" stroke-width=".79701" stroke-linecap="butt" stroke-miterlimit="10" stroke-linejoin="miter" fill="none" stroke="#000000" d="M0 86.12938 .45825 86.25386 .91653 86.37825 1.37482 86.50247 1.83308 86.62651 2.29135 86.75063 2.74963 86.87466 3.20792 86.99861 3.66618 87.12238 4.12445 87.24594 4.58273 87.36954 5.04102 87.49301 5.49928 87.61632 5.95755 87.73964 6.41583 87.86276 6.87411 87.98581 7.33238 88.10875 7.79065 88.2317 8.24893 88.35437 8.7072 88.4767 9.16548 88.59926 9.62376 88.72168 10.08203 88.84381 10.5403 88.96596 10.99858 89.0877 11.45686 89.20975 11.91513 89.33142 12.3734 89.45302 12.83168 89.57462 13.28996 89.69585 13.74823 89.81706 14.2065 89.93776 14.66478 90.05879 15.12306 90.17957 15.58131 90.30026 16.0396 90.42075 16.49788 90.5409 16.95616 90.66095 17.41443 90.78099 17.8727 90.90068 18.33098 91.02037 18.78926 91.13988 19.24753 91.25911 19.7058 91.37825 20.16408 91.49731 20.62236 91.61601 21.08063 91.73407 21.5389 91.85266 21.99718 91.97127 22.45546 92.08896 22.91373 92.20667 23.372 92.32526 23.83028 92.44115 24.28856 92.55884 24.74683 92.67653 25.2051 92.79332 25.66338 92.90921 26.12166 93.0251 26.57993 93.14188 27.03821 93.25778 27.49648 93.37366 27.95476 93.48863 28.41302 93.60452 28.8713 93.71948 29.32957 93.83359 29.78786 93.94855 30.24612 94.06172 30.7044 94.17671 31.16267 94.28987 31.62096 94.40305 32.07922 94.5162 32.5375 94.62756 32.99577 94.74164 33.45406 94.85391 33.91232 94.96526 34.3706 95.07571 34.82887 95.18799 35.28714 95.29753 35.74542 95.40889 36.2037 95.51753 36.66199 95.62798 37.12024 95.73753 37.57852 95.84618 38.0368 95.9539 38.49509 96.06165 38.95334 96.16939 39.41162 96.27713 39.8699 96.38396 40.32819 96.48987 40.78644 96.59673 41.24472 96.70174 41.703 96.80675 42.16127 96.91177 42.61954 97.01497 43.07782 97.11911 43.5361 97.22232 43.99437 97.32463 44.45265 97.42691 44.91092 97.52742 45.3692 97.62881 45.82747 97.72841 46.28578 97.82799 46.744 97.92668 47.2023 98.02538 47.66054 98.12224 48.11885 98.21822 48.57715 98.31508 49.03539 98.41014 49.49368 98.5043 49.95192 98.59846 50.41022 98.69263 50.86852 98.78314 51.32675 98.87459 51.78506 98.96602 52.24329 99.05475 52.7016 99.14438 53.1599 99.2313 53.61813 99.3173 54.07645 99.40242 54.53465 99.4866 54.99297 99.5699 55.45128 99.65228 55.90952 99.73286 56.3678 99.81253 56.82603 99.8904 57.28435 99.96698 57.74266 100.0425 58.20087 100.11636 58.65918 100.18861 59.11742 100.2595 59.57573 100.32858 60.03401 100.39594 60.49225 100.46167 60.95056 100.52542 61.4088 100.58733 61.8671 100.64699 62.3254 100.70457 62.78363 100.75998 63.24193 100.81313 63.70016 100.86374 64.15846 100.9119 64.61678 100.95726 65.07501 100.9999 65.53331 101.03957 65.99153 101.07623 66.44984 101.10945 66.90814 101.13933 67.36638 101.16576 67.82468 101.18822 68.28291 101.20677 68.74121 101.22081 69.19952 101.2305 69.65775 101.23549 70.11604 101.23538 70.57428 101.22968 71.0326 101.21855 71.4909 101.20125 71.94913 101.17744 72.40742 101.14665 72.86566 101.10854 73.32397 101.06255 73.78226 101.00777 74.2405 100.94395 74.6988 100.87053 75.15704 100.78606 75.61534 100.69044 76.07364 100.58237 76.53188 100.46059 76.99019 100.32405 77.4484 100.17159 77.90671 100.00157 78.36502 99.81216 78.82326 99.60178 79.28156 99.36763 79.73978 99.10817 80.19809 98.81935 80.6564 98.49796 81.11462 98.14125 81.57292 97.74289 82.03116 97.30017 82.48947 96.80403 82.94777 96.24724 83.40599 95.62254 83.8643 94.91727 84.32254 94.11877 84.78084 93.2098 85.23914 92.16774 85.69737 90.96904 86.15567 89.57568 86.6139 87.94604 87.0722 86.01494 87.53052 83.69994 87.98875 80.88248 88.44705 77.38782 88.90529 72.9543 89.36359 67.15733 89.82188 59.28255 90.28012 48.00005 90.73843 30.53214 91.19666 0"/>
</g>
<g clip-path="url(#clip_4)">
<path transform="matrix(1.00002,0,0,-1,1.095665,198.983)" stroke-width=".79701" stroke-linecap="butt" stroke-miterlimit="10" stroke-linejoin="miter" fill="none" stroke="#000000" d="M93.66194 226.92693 93.95918 205.00922 94.25644 190.25032 94.5537 179.64266 94.85095 171.65778 95.14822 165.43556 95.44547 160.45467 95.74272 156.38085 96.03998 152.9903 96.33722 150.12676 96.63449 147.6784 96.93175 145.5634 97.229 143.7193 97.52626 142.0988 97.8235 140.66509 98.12077 139.38881 98.41803 138.24643 98.71529 137.21895 99.01254 136.29068 99.30978 135.44907 99.60706 134.68296 99.90431 133.98339 100.20157 133.34294 100.49883 132.75492 100.79607 132.21361 101.09334 131.7142 101.3906 131.25275 101.68785 130.82543 101.98509 130.4289 102.28235 130.06058 102.57962 129.71773 102.87688 129.3985 103.17413 129.10054 103.47137 128.82224 103.76863 128.56232 104.0659 128.31887 104.36316 128.0909 104.66042 127.87732 104.95766 127.67706 105.25491 127.4892 105.55219 127.31265 105.84943 127.14688 106.14668 126.99098 106.44394 126.8444 106.7412 126.7067 107.03847 126.57713 107.33571 126.45528 107.63297 126.34048 107.93022 126.23257 108.22748 126.13109 108.52475 126.03548 108.822 125.94557 109.11925 125.86098 109.4165 125.7814 109.71376 125.70659 110.01102 125.63629 110.30827 125.57022 110.60553 125.50818 110.90279 125.44994 111.20004 125.39531 111.49728 125.34407 111.79456 125.29608 112.09181 125.25117 112.38907 125.20915 112.68633 125.16992 112.98357 125.1333 113.28084 125.09914 113.5781 125.06734 113.87535 125.0378 114.1726 125.01036 114.46985 124.98492 114.76712 124.9614 115.06438 124.93968 115.36163 124.91966 115.65887 124.90128 115.95613 124.88443 116.2534 124.86902 116.55066 124.85495 116.84792 124.84221 117.14516 124.83066 117.44241 124.82028 117.73969 124.81093 118.03694 124.80261 118.3342 124.79524 118.63144 124.78873 118.9287 124.78305 119.22597 124.7781 119.52322 124.77386 119.82047 124.77028 120.11772 124.76727 120.41498 124.76477 120.71225 124.76277 121.00949 124.7612 121.30675 124.75998 121.604 124.75911 121.90126 124.7585 122.19853 124.75809 122.49579 124.75787 122.79303 124.75777 123.09029 124.75775H123.38754L123.68483 124.75772 123.98206 124.75763 124.27933 124.7574 124.57655 124.757 124.87383 124.7564 125.17111 124.7555 125.46834 124.7543 125.76561 124.75272 126.06284 124.75072 126.3601 124.74823 126.6574 124.74522 126.95462 124.74164 127.25189 124.7374 127.54912 124.73247 127.84639 124.72678 128.14366 124.72028 128.44089 124.7129 128.73818 124.70459 129.0354 124.69525 129.33266 124.68486 129.62995 124.67332 129.92717 124.66058 130.22444 124.64651 130.52167 124.63112 130.81894 124.61427 131.11624 124.59587 131.41345 124.57587 131.71073 124.55417 132.00795 124.53064 132.30522 124.50522 132.60251 124.47777 132.89974 124.44824 133.197 124.41644 133.49423 124.38232 133.7915 124.34569 134.08879 124.30644 134.38602 124.26445 134.68329 124.21954 134.98052 124.17155 135.27779 124.12035 135.57508 124.06572 135.8723 124.0075 136.16957 123.94547 136.4668 123.87943 136.76407 123.80913 137.06136 123.73431 137.35858 123.65479 137.65586 123.57028 137.95308 123.4803 138.25035 123.38467 138.54764 123.2832 138.84487 123.17528 139.14214 123.06065 139.43936 122.9388 139.73664 122.80916 140.03392 122.67145 140.33115 122.52505 140.62842 122.36925 140.92565 122.20337 141.22292 122.02684 141.5202 121.83897 141.81743 121.63872 142.1147 121.42523 142.41193 121.19736 142.7092 120.95398 143.00649 120.69406 143.30371 120.41583 143.60099 120.11798 143.89821 119.79875 144.19548 119.45598 144.49277 119.0877 144.79 118.69133 145.08725 118.26408 145.38448 117.80263 145.68177 117.3035 145.97905 116.76237 146.27626 116.17444 146.57353 115.534 146.87076 114.83488 147.16805 114.06897 147.4653 113.22743 147.76255 112.29962 148.05983 111.27232 148.35706 110.13057 148.65431 108.85449 148.95159 107.42122 149.24883 105.80162 149.5461 103.95833 149.84333 101.84433 150.1406 99.39697 150.43787 96.53479 150.7351 93.14622 151.03238 89.07458 151.3296 84.09749 151.62688 77.87952 151.92415 69.90091 152.22139 59.3042 152.51866 44.5597 152.81589 22.67638"/>
</g>
<g clip-path="url(#clip_5)">
<path transform="matrix(1.00002,0,0,-1,1.095665,198.983)" stroke-width=".79701" stroke-linecap="butt" stroke-miterlimit="10" stroke-linejoin="miter" fill="none" stroke="#000000" d="M155.28163 249.56078 155.7399 219.0051 156.19818 201.53176 156.65645 190.24199 157.11472 182.3645 157.573 176.56662 158.03128 172.13219 158.48957 168.63663 158.94782 165.81916 159.4061 163.50328 159.86438 161.57215 160.32266 159.94069 160.78092 158.54827 161.2392 157.34958 161.69748 156.30753 162.15576 155.39855 162.61402 154.59822 163.0723 153.89385 163.53058 153.26824 163.98885 152.71326 164.44712 152.21714 164.9054 151.77262 165.36368 151.37424 165.82195 151.01755 166.28023 150.69704 166.7385 150.40914 167.19678 150.14786 167.65505 149.914 168.11333 149.7035 168.5716 149.51412 169.02988 149.34398 169.48815 149.19144 169.94643 149.055 170.4047 148.93332 170.86296 148.82512 171.32125 148.72945 171.77953 148.64514 172.2378 148.57155 172.69606 148.5078 173.15435 148.45313 173.61263 148.40714 174.07089 148.36884 174.52916 148.33805 174.98744 148.31424 175.44573 148.29695 175.904 148.28563 176.36226 148.2801H176.82054L177.27883 148.28482 177.7371 148.29468 178.19536 148.30872 178.65364 148.32726 179.11193 148.34973 179.5702 148.37615 180.02846 148.40586 180.48674 148.43926 180.94503 148.47592 181.4033 148.51558 181.86156 148.55814 182.31984 148.60359 182.77812 148.65166 183.2364 148.70236 183.69466 148.75533 184.15294 148.81073 184.61122 148.8685 185.0695 148.92816 185.52777 148.99008 185.98604 149.05382 186.44432 149.11937 186.9026 149.18682 187.36087 149.25598 187.81914 149.32678 188.27742 149.39913 188.7357 149.47299 189.19397 149.54833 189.65224 149.6251 190.11052 149.70386 190.56879 149.78264 191.02707 149.8632 191.48534 149.94559 191.94362 150.02889 192.40189 150.11309 192.86017 150.19728 193.31845 150.2842 193.77672 150.37291 194.23499 150.46074 194.69327 150.54947 195.15155 150.64092 195.60982 150.73055 196.06809 150.82288 196.52637 150.91704 196.98465 151.0094 197.4429 151.10536 197.90119 151.20043 198.35947 151.29547 198.81775 151.39237 199.276 151.49013 199.73429 151.58882 200.19257 151.68749 200.65085 151.78708 201.1091 151.88668 201.56742 151.98807 202.02565 152.08856 202.48395 152.19086 202.94219 152.29319 203.40048 152.3964 203.8588 152.5005 204.31703 152.60372 204.77533 152.70783 205.23355 152.81285 205.69187 152.91878 206.15016 153.02562 206.6084 153.13153 207.0667 153.23836 207.52494 153.3461 207.98325 153.45384 208.44155 153.56157 208.89977 153.66931 209.35808 153.77796 209.8163 153.88751 210.27462 153.99796 210.73293 154.10662 211.19115 154.21796 211.64945 154.3275 212.10768 154.43978 212.566 154.55022 213.02429 154.66158 213.48252 154.77387 213.94083 154.88793 214.39907 154.99927 214.85736 155.11246 215.31566 155.22562 215.7739 155.33878 216.23221 155.45377 216.69043 155.56693 217.14873 155.68192 217.60704 155.79599 218.06528 155.91097 218.52356 156.02596 218.9818 156.14183 219.44011 156.25772 219.89842 156.37361 220.35666 156.4904 220.81494 156.60628 221.27318 156.72216 221.73149 156.83896 222.18979 156.95665 222.64801 157.07254 223.10633 157.19023 223.56456 157.30794 224.02286 157.42653 224.48116 157.54514 224.93939 157.66283 225.39769 157.78054 225.85593 157.89922 226.31423 158.01808 226.77254 158.13724 227.23078 158.2562 227.68907 158.3756 228.14731 158.49494 228.6056 158.61454 229.0639 158.73433 229.52214 158.85437 229.98046 158.9746 230.43868 159.09474 230.89699 159.21506 231.35529 159.33583 231.81352 159.4566 232.27182 159.57765 232.73004 159.69843 233.18836 159.81966 233.64667 159.94089 234.10489 160.06238 234.56319 160.18389 235.02143 160.30558 235.47974 160.4276 235.93804 160.54946 236.39626 160.67142 236.85457 160.79373 237.3128 160.91613 237.77112 161.03862 238.2294 161.16112 238.68764 161.2837 239.14595 161.40665 239.60419 161.52959 240.06247 161.65254 240.52079 161.77576 240.97902 161.89899 241.43732 162.02237 241.89554 162.14588 242.35385 162.26955 242.81217 162.39313 243.2704 162.51688 243.72869 162.64075 244.18692 162.76477 244.64524 162.8888 245.10353 163.01285 245.56177 163.13722 246.02007 163.26155 246.4783 163.38602"/>
</g>
<g clip-path="url(#clip_6)">
<path transform="matrix(1.00002,0,0,-1,1.095665,198.983)" stroke-width=".3985" stroke-linecap="butt" stroke-dasharray="2.98883,2.98883" stroke-miterlimit="10" stroke-linejoin="miter" fill="none" stroke="#000000" d="M0 88.5436 246.47879 160.97191"/>
</g>
<path transform="matrix(1.00002,0,0,-1,1.095665,198.983)" stroke-width=".3985" stroke-linecap="butt" stroke-dasharray="2.98883,2.98883" stroke-miterlimit="10" stroke-linejoin="miter" fill="none" stroke="#000000" d="M92.42953 52.32944V197.18605"/>
<path transform="matrix(1.00002,0,0,-1,1.095665,198.983)" stroke-width=".3985" stroke-linecap="butt" stroke-dasharray="2.98883,2.98883" stroke-miterlimit="10" stroke-linejoin="miter" fill="none" stroke="#000000" d="M154.04924 52.32944V197.18605"/>
<path transform="matrix(1.00002,0,0,-1,1.095665,198.983)" d="M71.86928 101.23665C71.86928 102.33713 70.97719 103.2292 69.87672 103.2292 68.77625 103.2292 67.88417 102.33713 67.88417 101.23665 67.88417 100.13618 68.77625 99.2441 69.87672 99.2441 70.97719 99.2441 71.86928 100.13618 71.86928 101.23665ZM69.87672 101.23665"/>
<path transform="matrix(1.00002,0,0,-1,1.095665,198.983)" stroke-width=".3985" stroke-linecap="butt" stroke-miterlimit="10" stroke-linejoin="miter" fill="none" stroke="#000000" d="M71.86928 101.23665C71.86928 102.33713 70.97719 103.2292 69.87672 103.2292 68.77625 103.2292 67.88417 102.33713 67.88417 101.23665 67.88417 100.13618 68.77625 99.2441 69.87672 99.2441 70.97719 99.2441 71.86928 100.13618 71.86928 101.23665ZM69.87672 101.23665"/>
<path transform="matrix(1.00002,0,0,-1,1.095665,198.983)" d="M125.23195 124.75775C125.23195 125.85822 124.33986 126.7503 123.2394 126.7503 122.13892 126.7503 121.24684 125.85822 121.24684 124.75775 121.24684 123.65727 122.13892 122.7652 123.2394 122.7652 124.33986 122.7652 125.23195 123.65727 125.23195 124.75775ZM123.2394 124.75775"/>
<path transform="matrix(1.00002,0,0,-1,1.095665,198.983)" stroke-width=".3985" stroke-linecap="butt" stroke-miterlimit="10" stroke-linejoin="miter" fill="none" stroke="#000000" d="M125.23195 124.75775C125.23195 125.85822 124.33986 126.7503 123.2394 126.7503 122.13892 126.7503 121.24684 125.85822 121.24684 124.75775 121.24684 123.65727 122.13892 122.7652 123.2394 122.7652 124.33986 122.7652 125.23195 123.65727 125.23195 124.75775ZM123.2394 124.75775"/>
<path transform="matrix(1.00002,0,0,-1,1.095665,198.983)" d="M178.5946 148.27883C178.5946 149.3793 177.70252 150.27138 176.60205 150.27138 175.50157 150.27138 174.6095 149.3793 174.6095 148.27883 174.6095 147.17836 175.50157 146.28627 176.60205 146.28627 177.70252 146.28627 178.5946 147.17836 178.5946 148.27883ZM176.60205 148.27883"/>
<path transform="matrix(1.00002,0,0,-1,1.095665,198.983)" stroke-width=".3985" stroke-linecap="butt" stroke-miterlimit="10" stroke-linejoin="miter" fill="none" stroke="#000000" d="M178.5946 148.27883C178.5946 149.3793 177.70252 150.27138 176.60205 150.27138 175.50157 150.27138 174.6095 149.3793 174.6095 148.27883 174.6095 147.17836 175.50157 146.28627 176.60205 146.28627 177.70252 146.28627 178.5946 147.17836 178.5946 148.27883ZM176.60205 148.27883"/>
<path transform="matrix(1.00002,0,0,-1,1.095665,198.983)" stroke-width=".3985" stroke-linecap="butt" stroke-miterlimit="10" stroke-linejoin="miter" fill="none" stroke="#000000" d=""/>
<path transform="matrix(1.00002,0,0,-1,1.095665,198.983)" d="M70.07597 96.72852H114.13133V105.744808H70.07597Z" fill="#ffffff"/>
<use data-text="l" xlink:href="#font_7_72" transform="matrix(9.962799,0,0,-9.9626,72.16909,101.149)"/>
<use data-text="o" xlink:href="#font_7_81" transform="matrix(9.962799,0,0,-9.9626,74.93874,101.149)"/>
<use data-text="c" xlink:href="#font_7_43" transform="matrix(9.962799,0,0,-9.9626,80.199108,101.149)"/>
<use data-text="a" xlink:href="#font_7_28" transform="matrix(9.962799,0,0,-9.9626,84.62258,101.149)"/>
<use data-text="l" xlink:href="#font_7_72" transform="matrix(9.962799,0,0,-9.9626,89.60398,101.149)"/>
<use data-text="m" xlink:href="#font_7_75" transform="matrix(9.962799,0,0,-9.9626,95.691249,101.149)"/>
<use data-text="a" xlink:href="#font_7_28" transform="matrix(9.962799,0,0,-9.9626,103.99026,101.149)"/>
<use data-text="x" xlink:href="#font_7_116" transform="matrix(9.962799,0,0,-9.9626,108.97166,101.149)"/>
<path transform="matrix(1.00002,0,0,-1,1.095665,198.983)" d="M176.8013 143.77068H218.92388V152.78696H176.8013Z" fill="#ffffff"/>
<use data-text="l" xlink:href="#font_7_72" transform="matrix(9.962799,0,0,-9.9626,178.89722,54.106004)"/>
<use data-text="o" xlink:href="#font_7_81" transform="matrix(9.962799,0,0,-9.9626,181.66687,54.106004)"/>
<use data-text="c" xlink:href="#font_7_43" transform="matrix(9.962799,0,0,-9.9626,186.92725,54.106004)"/>
<use data-text="a" xlink:href="#font_7_28" transform="matrix(9.962799,0,0,-9.9626,191.35071,54.106004)"/>
<use data-text="l" xlink:href="#font_7_72" transform="matrix(9.962799,0,0,-9.9626,196.33213,54.106004)"/>
<use data-text="m" xlink:href="#font_7_75" transform="matrix(9.962799,0,0,-9.9626,202.41938,54.106004)"/>
<use data-text="i" xlink:href="#font_7_66" transform="matrix(9.962799,0,0,-9.9626,210.71839,54.106004)"/>
<use data-text="n" xlink:href="#font_7_77" transform="matrix(9.962799,0,0,-9.9626,213.48804,54.106004)"/>
<path transform="matrix(1.00002,0,0,-1,1.095665,198.983)" d="M123.43864 120.19481H165.2922V129.32067H123.43864Z" fill="#ffffff"/>
<use data-text="i" xlink:href="#font_7_66" transform="matrix(9.962799,0,0,-9.9626,125.53316,77.682)"/>
<use data-text="n" xlink:href="#font_7_77" transform="matrix(9.962799,0,0,-9.9626,128.30281,77.682)"/>
<use data-text="f" xlink:href="#font_7_126" transform="matrix(9.962799,0,0,-9.9626,133.84214,77.682)"/>
<use data-text="e" xlink:href="#font_7_50" transform="matrix(9.962799,0,0,-9.9626,139.38144,77.682)"/>
<use data-text="c" xlink:href="#font_7_43" transform="matrix(9.962799,0,0,-9.9626,143.80493,77.682)"/>
<use data-text="t" xlink:href="#font_7_105" transform="matrix(9.962799,0,0,-9.9626,148.22841,77.682)"/>
<use data-text="i" xlink:href="#font_7_66" transform="matrix(9.962799,0,0,-9.9626,152.10395,77.682)"/>
<use data-text="o" xlink:href="#font_7_81" transform="matrix(9.962799,0,0,-9.9626,154.8736,77.682)"/>
<use data-text="n" xlink:href="#font_7_77" transform="matrix(9.962799,0,0,-9.9626,159.855,77.682)"/>
<path transform="matrix(1.00002,0,0,-1,1.095665,198.983)" d="M188.69844 137.61505H214.91057V145.8343H188.69844Z" fill="#ffffff"/>
<use data-text="y" xlink:href="#font_8_2" transform="matrix(9.962799,0,0,-9.9626,190.79447,58.434007)"/>
<use data-text="=" xlink:href="#font_9_2" transform="matrix(9.962799,0,0,-9.9626,198.80364,58.434007)"/>
<use data-text="x" xlink:href="#font_8_1" transform="matrix(9.962799,0,0,-9.9626,209.31984,58.434007)"/>
<use data-text="x" xlink:href="#font_8_1" transform="matrix(9.962799,0,0,-9.9626,162.3649,18.587006)"/>
<use data-text="=" xlink:href="#font_9_2" transform="matrix(9.962799,0,0,-9.9626,170.82608,18.587006)"/>
<use data-text="1" xlink:href="#font_9_1" transform="matrix(9.962799,0,0,-9.9626,181.32686,18.587006)"/>
<use data-text="x" xlink:href="#font_8_1" transform="matrix(9.962799,0,0,-9.9626,54.601739,18.171998)"/>
<use data-text="=" xlink:href="#font_9_2" transform="matrix(9.962799,0,0,-9.9626,63.062906,18.171998)"/>
<use data-text="&#x2212;" xlink:href="#font_10_1" transform="matrix(9.962799,0,0,-9.9626,73.57911,18.171998)"/>
<use data-text="1" xlink:href="#font_9_1" transform="matrix(9.962799,0,0,-9.9626,81.32827,18.171998)"/>
<use data-text="x" xlink:href="#font_8_1" transform="matrix(9.962799,0,0,-9.9626,238.36542,70.705)"/>
<use data-text="y" xlink:href="#font_8_2" transform="matrix(9.962799,0,0,-9.9626,127.85721,9.606003)"/>
</svg>
